<?xml version="1.0" encoding="UTF-8" standalone="no"?>
<!-- Created with Inkscape (http://www.inkscape.org/) -->

<svg
   xmlns:dc="http://purl.org/dc/elements/1.1/"
   xmlns:cc="http://creativecommons.org/ns#"
   xmlns:rdf="http://www.w3.org/1999/02/22-rdf-syntax-ns#"
   xmlns:svg="http://www.w3.org/2000/svg"
   xmlns="http://www.w3.org/2000/svg"
   xmlns:sodipodi="http://sodipodi.sourceforge.net/DTD/sodipodi-0.dtd"
   xmlns:inkscape="http://www.inkscape.org/namespaces/inkscape"
   width="400mm"
   height="240mm"
   viewBox="0 0 400 240"
   version="1.1"
   id="svg8"
   inkscape:version="0.92.4 (5da689c313, 2019-01-14)"
   sodipodi:docname="webbg.svg">
  <defs
     id="defs2" />
  <sodipodi:namedview
     id="base"
     pagecolor="#ffffff"
     bordercolor="#666666"
     borderopacity="1.0"
     inkscape:pageopacity="0.0"
     inkscape:pageshadow="2"
     inkscape:zoom="0.7"
     inkscape:cx="722.77488"
     inkscape:cy="497.30144"
     inkscape:document-units="mm"
     inkscape:current-layer="layer1"
     showgrid="false"
     inkscape:window-width="1920"
     inkscape:window-height="1000"
     inkscape:window-x="-11"
     inkscape:window-y="-11"
     inkscape:window-maximized="1" />
  <metadata
     id="metadata5">
    <rdf:RDF>
      <cc:Work
         rdf:about="">
        <dc:format>image/svg+xml</dc:format>
        <dc:type
           rdf:resource="http://purl.org/dc/dcmitype/StillImage" />
        <dc:title></dc:title>
      </cc:Work>
    </rdf:RDF>
  </metadata>
  <g
     inkscape:label="Layer 1"
     inkscape:groupmode="layer"
     id="layer1"
     transform="translate(0,-57)">
    <rect
       style="fill:#bdd7d9;fill-opacity:1;stroke:none;stroke-width:0.38724452;stroke-miterlimit:4;stroke-dasharray:none;stroke-opacity:1"
       id="rect815"
       width="428.06494"
       height="240.56842"
       x="-27.410133"
       y="57.187553" />
  </g>
  <g
     inkscape:groupmode="layer"
     id="layer2"
     inkscape:label="woodbase"
     transform="translate(0,30)">
    <rect
       style="fill:#8f7660;fill-opacity:1;stroke:none;stroke-width:0.37615433;stroke-miterlimit:4;stroke-dasharray:none;stroke-opacity:1"
       id="rect820"
       width="434.01169"
       height="67.608284"
       x="-33.35688"
       y="143.14771" />
    <path
       style="fill:none;stroke:#e9bd54;stroke-width:0.5161624;stroke-linecap:butt;stroke-linejoin:miter;stroke-miterlimit:4;stroke-dasharray:none;stroke-opacity:0.2739131"
       d="m -33.227185,185.40482 c 35.9580946,-1.98182 61.555003,0.5535 107.66916,0.81974 20.859893,-0.0531 21.507569,1.73142 42.367475,1.67839 23.84093,-0.0606 54.2897,-4.53147 78.13067,-2.01953 13.73321,-0.0349 45.49324,4.36195 59.07954,2.46779 48.61194,-6.77737 138.47794,-5.7877 146.50638,-3.32437"
       id="path2390-9-3-0"
       inkscape:connector-curvature="0"
       sodipodi:nodetypes="ccccsc" />
    <path
       style="fill:none;stroke:#ebe6d5;stroke-width:0.65774626;stroke-linecap:butt;stroke-linejoin:miter;stroke-miterlimit:4;stroke-dasharray:none;stroke-opacity:0.24347827"
       d="m -32.766586,193.54328 c 35.9766428,-1.98183 6.363396,-0.54904 52.501336,-0.2828 8.37364,-0.0213 20.763338,2.64695 30.200397,4.04632 9.38595,1.39178 26.136873,-0.86612 38.633909,-0.89788 23.853214,-0.0606 2.568255,-5.77593 106.949264,-0.91698 13.74021,-0.0349 41.23965,4.73503 54.83207,2.8353 27.39055,-3.82822 55.75982,-8.23658 84.66803,-5.9941 21.98691,1.70559 43.44677,3.95419 64.27945,2.31269"
       id="path2390-9-6-4"
       inkscape:connector-curvature="0"
       sodipodi:nodetypes="ccsccssc" />
    <path
       style="fill:none;stroke:#e9bd54;stroke-width:0.49632126;stroke-linecap:butt;stroke-linejoin:miter;stroke-miterlimit:4;stroke-dasharray:none;stroke-opacity:0.2739131"
       d="m -33.405412,206.99493 c 33.24677648,-1.98183 90.205176,-0.89557 132.84224,-0.62933 19.286952,-0.0531 23.120282,-2.67875 42.407222,-2.73179 22.04327,-0.0606 46.96165,-0.12128 69.00497,2.39065 12.69769,-0.0349 42.06296,4.36195 54.62481,2.46779 44.94651,-6.77737 155.64503,-5.59871 134.41108,-2.94638"
       id="path2390-9-3-0-4"
       inkscape:connector-curvature="0"
       sodipodi:nodetypes="ccccsc" />
    <path
       style="fill:none;stroke:#764c0f;stroke-width:0.51724315;stroke-linecap:butt;stroke-linejoin:miter;stroke-miterlimit:4;stroke-dasharray:none;stroke-opacity:0.38695655"
       d="m -33.145079,157.80592 c 36.1086197,-1.98182 61.812691,0.5535 108.120033,0.81974 20.947341,-0.0531 21.597721,1.73142 42.545106,1.67839 23.94101,-0.0606 54.51759,-4.53148 78.45866,-2.01953 13.79085,-0.0349 45.68421,4.36195 59.32752,2.46779 48.81599,-6.77737 103.85981,0.64904 145.98235,-2.94639"
       id="path2390-9-3-0-8"
       inkscape:connector-curvature="0"
       sodipodi:nodetypes="ccccsc" />
    <path
       style="fill:none;stroke:#e9bd54;stroke-width:0.49632126;stroke-linecap:butt;stroke-linejoin:miter;stroke-miterlimit:4;stroke-dasharray:none;stroke-opacity:0.2739131"
       d="m -33.003663,162.6121 c 33.24678,-1.98183 90.205176,-0.89557 132.842246,-0.62933 19.286947,-0.0531 23.120277,-2.67875 42.407217,-2.73179 22.04327,-0.0606 46.96165,-0.12128 69.00497,2.39065 12.69769,-0.0349 42.06296,4.36195 54.62482,2.46779 44.94649,-6.77737 155.64502,-5.59871 134.41107,-2.94638"
       id="path2390-9-3-0-4-9"
       inkscape:connector-curvature="0"
       sodipodi:nodetypes="ccccsc" />
  </g>
  <g
     inkscape:groupmode="layer"
     id="layer3"
     inkscape:label="woodlines"
     transform="translate(0,30)">
    <path
       style="fill:none;stroke:#0b0b0b;stroke-width:0.38226402px;stroke-linecap:butt;stroke-linejoin:miter;stroke-opacity:0.37391304"
       d="m -33.480385,152.84313 c 36.0526136,-2.0632 65.613989,4.40227 111.849359,4.67944 20.914717,-0.0553 40.660286,-1.25833 61.575036,-1.31354 23.90359,-0.0631 47.80719,-5.48273 71.71076,-2.86766 13.76924,-0.0364 29.24547,4.54684 42.8666,2.56912 48.32503,-7.0166 97.42952,0.8884 145.75457,-3.06736"
       id="path2390-9"
       inkscape:connector-curvature="0"
       sodipodi:nodetypes="ccccsc" />
    <path
       style="fill:none;stroke:#ebe6d5;stroke-width:0.67164981;stroke-linecap:butt;stroke-linejoin:miter;stroke-miterlimit:4;stroke-dasharray:none;stroke-opacity:0.14347827"
       d="m -33.003663,160.49542 c 24.2272224,-1.38727 17.687543,2.57433 25.5480778,2.95154 3.8303497,0.18382 11.8952592,-3.33677 27.0353172,-3.24596 8.386728,-0.0222 20.795785,2.75573 30.247598,4.21261 9.400621,1.44897 26.177729,-0.90172 38.694292,-0.93479 19.087128,-0.0504 3.080512,-11.0015 44.052178,-1.31604 3.2806,0.77552 9.16074,2.30037 15.48972,0.78574 14.88752,-3.56284 36.64131,-0.20328 47.57453,-0.42436 13.76169,-0.0364 51.7276,1.7224 65.34128,-0.25541 27.43334,-3.98554 31.7927,-1.09153 60.74609,1.24311 22.0213,1.77568 58.65735,0.21836 79.52257,-1.4906"
       id="path2390-9-6"
       inkscape:connector-curvature="0"
       sodipodi:nodetypes="cscscsscssc" />
    <path
       style="fill:none;stroke:#0b0b0b;stroke-width:0.67068267;stroke-linecap:butt;stroke-linejoin:miter;stroke-miterlimit:4;stroke-dasharray:none;stroke-opacity:0.26086958"
       d="m -32.923462,170.06089 c 44.492898,0.7673 -6.296125,-1.58814 78.453345,-0.84278 23.821742,-0.0631 124.931867,-4.33507 148.753617,-1.7199 13.7221,-0.0364 59.34965,4.95912 73.01376,3.71705 69.29469,-6.29887 89.3738,0.34853 133.95073,-5.40469"
       id="path2390-9-0"
       inkscape:connector-curvature="0"
       sodipodi:nodetypes="cccsc" />
    <path
       style="fill:none;stroke:#d1be7a;stroke-width:0.52657157;stroke-linecap:butt;stroke-linejoin:miter;stroke-miterlimit:4;stroke-dasharray:none;stroke-opacity:0.28260869"
       d="m -32.731916,174.70612 c 0,0 -6.07609,4.01981 40.0222906,4.29699 20.8527494,-0.0553 53.3623844,-2.40623 74.2151594,-2.46145 23.832766,-0.0631 11.9177,-2.8046 90.537916,-4.39822 13.72844,-0.0364 59.85533,7.99057 73.43609,6.01276 27.36706,-3.98554 60.37478,-7.04459 89.25819,-4.70995 21.96805,1.77568 44.73244,-1.17498 65.54725,-2.88395"
       id="path2390-9-6-6"
       inkscape:connector-curvature="0"
       sodipodi:nodetypes="ccccssc" />
    <path
       style="fill:none;stroke:#0b0b0b;stroke-width:0.52610481;stroke-linecap:butt;stroke-linejoin:miter;stroke-miterlimit:4;stroke-dasharray:none;stroke-opacity:0.37391304"
       d="m -33.130552,184.27158 c 44.434595,0.7673 -6.287875,-1.58814 78.350542,-0.84277 43.184274,-4.27193 105.76229,-6.24817 129.55282,-3.633 13.70411,-0.0364 88.35739,4.05696 101.62082,0.65611 29.41002,-7.54099 106.63993,7.61965 124.26932,-4.97593"
       id="path2390-9-0-7"
       inkscape:connector-curvature="0"
       sodipodi:nodetypes="cccsc" />
    <path
       style="fill:none;stroke:#e9bd54;stroke-width:0.67256856;stroke-linecap:butt;stroke-linejoin:miter;stroke-miterlimit:4;stroke-dasharray:none;stroke-opacity:0.2739131"
       d="m -33.706626,147.09589 c 36.1334918,-2.06316 61.855258,0.5762 108.194351,0.85338 20.96164,-0.0553 21.612478,1.80248 42.574155,1.74726 23.95721,-0.0631 54.5545,-4.71744 78.51178,-2.1024 13.80019,-0.0364 45.71602,4.54676 59.3677,2.56906 48.43344,-7.01647 97.6481,0.88839 146.08155,-3.0673"
       id="path2390-9-3"
       inkscape:connector-curvature="0"
       sodipodi:nodetypes="ccccsc" />
    <path
       style="fill:none;stroke:#0b0b0b;stroke-width:0.38167971px;stroke-linecap:butt;stroke-linejoin:miter;stroke-opacity:0.37391304"
       d="m -33.401184,192.7445 c 35.9411567,-2.06327 22.28616,-2.4847 68.378626,-2.20752 3.682547,-0.01 14.512026,0.44458 14.512026,0.44458 23.024136,-1.52741 19.603823,2.49609 36.77147,2.45063 36.730382,0.01 63.491442,-3.30105 96.500012,-2.31543 24.39742,0.85424 41.04524,5.06011 48.8045,3.92997 28.87951,-4.20634 65.42,-7.25913 94.52318,-6.51044 19.4456,0.50025 55.08024,2.05407 74.37638,0.46958"
       id="path2390-9-8"
       inkscape:connector-curvature="0"
       sodipodi:nodetypes="ccsccssc" />
    <path
       style="fill:none;stroke:#0b0b0b;stroke-width:0.66950983;stroke-linecap:butt;stroke-linejoin:miter;stroke-miterlimit:4;stroke-dasharray:none;stroke-opacity:0.37391304"
       d="m -32.347079,204.3491 c 44.337415,0.7673 -6.27412,-1.58814 78.179191,-0.84278 23.738501,-0.0631 124.495078,-4.33507 148.233568,-1.7199 13.67414,-0.0364 59.14225,4.95912 72.75862,3.71705 69.05255,-6.29887 87.5549,0.72651 131.97606,-5.02671"
       id="path2390-9-0-78"
       inkscape:connector-curvature="0"
       sodipodi:nodetypes="cccsc" />
    <path
       style="fill:none;stroke:#62511d;stroke-width:0.38251182px;stroke-linecap:butt;stroke-linejoin:miter;stroke-opacity:0.34782613"
       d="m -33.669054,149.81292 c 36.0997117,-2.06318 9.409503,0.61468 55.705281,0.89186 5.46799,-0.0145 -0.758525,0.96271 10.262597,1.21423 5.258276,0.11997 8.329206,-1.1162 14.922092,-1.00561 5.120195,0.0859 8.677694,2.90714 14.342637,3.04126 2.978002,0.0706 6.023268,-2.58543 9.104111,-2.55365 28.272115,0.29182 61.471696,0.99194 71.245766,0.96617 23.93481,-0.0631 22.75978,-4.40053 46.6946,-1.78548 13.78723,-0.0364 31.61961,1.60332 45.40599,1.75746 12.12511,0.13557 25.04679,-0.65172 39.19299,-0.90654 3.90246,-0.0703 7.03304,-1.46889 11.03222,-1.49659 3.19072,-0.0221 5.30916,1.05841 8.55422,1.07262 7.86444,0.0345 14.25826,-1.78124 22.34972,-1.70389 13.02032,0.12441 19.01636,2.23287 32.01532,2.57627 8.54837,0.22582 18.85427,-1.11688 28.67265,-1.57169 9.36817,-0.43395 18.2925,0.0375 24.82278,-0.49642"
       id="path2390-9-04"
       inkscape:connector-curvature="0"
       sodipodi:nodetypes="ccssssccsssssssc" />
    <path
       style="fill:none;stroke:#ebe6d5;stroke-width:0.67167622;stroke-linecap:butt;stroke-linejoin:miter;stroke-miterlimit:4;stroke-dasharray:none;stroke-opacity:0.14347827"
       d="m -32.615821,144.49532 c 36.0384881,-2.06311 7.145634,0.18592 53.362892,0.46308 8.38804,-0.0222 20.799045,-1.03191 30.252336,0.42485 2.464369,0.37975 13.493842,-0.38909 18.41012,-0.61324 13.840375,-0.63098 27.305314,0.0817 36.542613,0.0573 17.21242,-0.0455 6.89123,0.81836 38.32717,0.0739 12.20333,-0.28899 28.25008,0.10838 50.2923,-0.33725 5.34198,-0.0143 18.79325,0.17961 28.79193,0.42687 7.57942,0.18742 13.88861,1.67196 19.81624,1.55027 6.40042,-0.13141 5.35632,-0.98225 9.6817,-1.61049 13.35787,-1.94019 8.29982,0.94617 26.96319,0.24638 19.67196,-0.73759 61.99756,-1.19152 76.85746,0.006 22.02472,1.77554 23.41257,1.41105 44.28107,-0.29777"
       id="path2390-9-6-8"
       inkscape:connector-curvature="0"
       sodipodi:nodetypes="ccsscscsssssc" />
    <path
       style="fill:none;stroke:#845f4c;stroke-width:0.38251182px;stroke-linecap:butt;stroke-linejoin:miter;stroke-opacity:0.34782613"
       d="m -33.706626,147.09589 c 30.4300671,0.0157 -2.49675,1.18164 43.79903,1.45882 5.46799,-0.0145 11.14772,0.39575 22.16885,0.64727 5.25827,0.11997 -0.175264,-0.17126 6.417626,-0.0607 5.12019,0.0859 12.457452,1.39524 18.122392,1.52936 2.978007,0.0706 10.747977,-2.01849 13.828817,-1.98669 13.195288,0.1362 26.141017,1.87324 38.600451,2.07202 14.23604,0.22711 27.43305,-1.09211 32.64532,-1.10585 23.93481,-0.0631 22.79735,-2.74183 46.73217,-0.12678 13.78723,-0.0364 31.58204,-0.0554 45.36842,0.0988 12.12511,0.13557 25.04678,-0.65172 39.19298,-0.90654 3.90247,-0.0703 7.03305,-1.46889 11.03223,-1.49659 3.19071,-0.0221 5.30915,1.05841 8.55421,1.07262 7.86445,0.0345 14.25827,-1.78124 22.34973,-1.70389 13.0203,0.12441 19.01634,2.23287 32.01532,2.57627 8.54837,0.22582 18.85426,-1.11688 28.67263,-1.57169 9.36818,-0.43395 18.2925,0.0375 24.82279,-0.49642"
       id="path2390-9-04-6"
       inkscape:connector-curvature="0"
       sodipodi:nodetypes="ccsssssccsssssssc" />
    <path
       style="fill:none;stroke:#84684c;stroke-width:0.38251182px;stroke-linecap:butt;stroke-linejoin:miter;stroke-opacity:0.95652175"
       d="m -33.480385,152.84313 c 30.43007,0.0157 -2.49675,1.18164 43.79903,1.45882 5.46799,-0.0145 11.14772,0.39575 22.16885,0.64727 5.25827,0.11997 -0.17526,-0.17126 6.41763,-0.0607 5.12019,0.0859 12.45745,1.39524 18.12239,1.52936 2.978009,0.0706 10.747985,-2.01849 13.828825,-1.98669 13.19528,0.1362 26.14101,1.87324 38.60045,2.07202 14.23604,0.22711 27.43305,-1.09211 32.64532,-1.10585 23.93481,-0.0631 22.79735,-2.74183 46.73217,-0.12678 13.78723,-0.0364 31.58204,-0.0554 45.36841,0.0988 12.12511,0.13557 25.04677,-0.65172 39.19298,-0.90654 3.90247,-0.0703 7.03305,-1.46889 11.03223,-1.49659 3.19071,-0.0221 5.30915,1.05841 8.55422,1.07262 7.86444,0.0345 14.25826,-1.78124 22.34972,-1.70389 13.0203,0.12441 19.01634,2.23287 32.01533,2.57627 8.54836,0.22582 18.85425,-1.11688 28.67262,-1.57169 9.36818,-0.43395 18.2925,0.0375 24.82279,-0.49642"
       id="path2390-9-04-6-1"
       inkscape:connector-curvature="0"
       sodipodi:nodetypes="ccsssssccsssssssc" />
    <path
       style="fill:none;stroke:#0b0b0b;stroke-width:0.37099999;stroke-linecap:butt;stroke-linejoin:miter;stroke-miterlimit:4;stroke-dasharray:none;stroke-opacity:0.26086958"
       d="m -33.003663,160.49542 c 20.869388,0.7673 25.0758939,-3.28903 56.530721,-1.59873 14.682029,-0.0389 65.727582,-0.44447 109.328002,-0.8628 27.1417,-0.26041 55.04335,3.62019 61.34824,-0.10115 9.93297,-1.25092 34.4416,-0.24448 52.81448,0.6358 8.67841,0.4158 15.25375,1.39074 19.63233,1.00238 45.50291,-4.03586 70.21404,-0.0252 94.3058,0.40948 10.42248,0.18807 21.58012,0.18504 33.46068,-1.39695 2.48658,-0.3311 4.10127,-0.93801 6.75119,-1.28002"
       id="path2390-9-0-0"
       inkscape:connector-curvature="0"
       sodipodi:nodetypes="ccscssssc" />
    <path
       style="fill:none;stroke:#0b0b0b;stroke-width:0.38226402px;stroke-linecap:butt;stroke-linejoin:miter;stroke-opacity:0.37391304"
       d="m -32.823694,171.22834 c 36.0526196,-2.0632 65.61399,4.40227 111.84936,4.67944 20.91472,-0.0553 40.660214,-1.25833 61.574964,-1.31354 23.90359,-0.0631 47.80719,-5.48273 71.71075,-2.86766 13.76925,-0.0364 29.24548,4.54684 42.8666,2.56912 48.32504,-7.0166 97.42962,0.8884 145.75465,-3.06736"
       id="path2390-9-2"
       inkscape:connector-curvature="0"
       sodipodi:nodetypes="ccccsc" />
    <path
       style="fill:none;stroke:#ebe6d5;stroke-width:0.67164981;stroke-linecap:butt;stroke-linejoin:miter;stroke-miterlimit:4;stroke-dasharray:none;stroke-opacity:0.14347827"
       d="m -32.346964,178.88063 c 24.2272196,-1.38727 17.68754,2.57433 25.5480696,2.95154 3.83035,0.18382 11.89526,-3.33677 27.0353204,-3.24596 8.38673,-0.0222 20.79579,2.75573 30.2476,4.21261 9.40062,1.44897 26.17773,-0.90172 38.69429,-0.93479 19.087104,-0.0504 3.08051,-11.0015 44.052104,-1.31604 3.2806,0.77552 9.16074,2.30037 15.48972,0.78574 14.88752,-3.56284 36.64131,-0.20328 47.57453,-0.42436 13.76168,-0.0364 51.7276,1.7224 65.34129,-0.25541 27.43332,-3.98554 31.79268,-1.09153 60.74616,1.24311 22.0213,1.77568 58.65736,0.21836 79.52256,-1.4906"
       id="path2390-9-6-0"
       inkscape:connector-curvature="0"
       sodipodi:nodetypes="cscscsscssc" />
    <path
       style="fill:none;stroke:#0b0b0b;stroke-width:0.67068267;stroke-linecap:butt;stroke-linejoin:miter;stroke-miterlimit:4;stroke-dasharray:none;stroke-opacity:0.26086958"
       d="m -32.266764,188.4461 c 44.4929,0.7673 -6.29613,-1.58814 78.45334,-0.84278 23.82174,-0.0631 124.931794,-4.33507 148.753544,-1.7199 13.72209,-0.0364 59.34966,4.95912 73.01375,3.71705 69.29477,-6.29887 89.37389,0.34853 133.95081,-5.40469"
       id="path2390-9-0-8"
       inkscape:connector-curvature="0"
       sodipodi:nodetypes="cccsc" />
    <path
       style="fill:none;stroke:#d1be7a;stroke-width:0.52657157;stroke-linecap:butt;stroke-linejoin:miter;stroke-miterlimit:4;stroke-dasharray:none;stroke-opacity:0.28260869"
       d="m -32.075224,193.09133 c 0,0 -6.07609,4.01981 40.0222896,4.29699 20.8527504,-0.0553 53.3623904,-2.40623 74.2151604,-2.46145 23.832754,-0.0631 11.9177,-2.8046 90.537844,-4.39822 13.72844,-0.0364 59.85532,7.99057 73.4361,6.01276 27.36704,-3.98554 60.37478,-7.04459 89.25827,-4.70995 21.96804,1.77568 44.73244,-1.17498 65.54724,-2.88395"
       id="path2390-9-6-6-3"
       inkscape:connector-curvature="0"
       sodipodi:nodetypes="ccccssc" />
    <path
       style="fill:none;stroke:#0b0b0b;stroke-width:0.52610481;stroke-linecap:butt;stroke-linejoin:miter;stroke-miterlimit:4;stroke-dasharray:none;stroke-opacity:0.37391304"
       d="m -32.473854,202.65679 c 44.43459,0.7673 -6.28788,-1.58814 78.35054,-0.84277 43.18427,-4.27193 105.762214,-6.24817 129.552744,-3.633 13.70411,-0.0364 88.35738,4.05696 101.62081,0.65611 29.41005,-7.54099 106.64002,7.61965 124.26942,-4.97593"
       id="path2390-9-0-7-3"
       inkscape:connector-curvature="0"
       sodipodi:nodetypes="cccsc" />
    <path
       style="fill:none;stroke:#e9bd54;stroke-width:0.67256856;stroke-linecap:butt;stroke-linejoin:miter;stroke-miterlimit:4;stroke-dasharray:none;stroke-opacity:0.2739131"
       d="m -33.049934,165.4811 c 36.1334896,-2.06316 61.85526,0.5762 108.19435,0.85338 20.96164,-0.0553 21.61248,1.80248 42.574084,1.74726 23.95721,-0.0631 54.5545,-4.71744 78.51178,-2.1024 13.80018,-0.0364 45.71602,4.54676 59.3677,2.56906 48.43344,-7.01647 97.64819,0.88839 146.08162,-3.0673"
       id="path2390-9-3-2"
       inkscape:connector-curvature="0"
       sodipodi:nodetypes="ccccsc" />
    <path
       style="fill:none;stroke:#62511d;stroke-width:0.38251182px;stroke-linecap:butt;stroke-linejoin:miter;stroke-opacity:0.34782613"
       d="m -33.012354,168.19813 c 36.0997096,-2.06318 9.4095,0.61468 55.70528,0.89186 5.46799,-0.0145 -0.75853,0.96271 10.26259,1.21423 5.25828,0.11997 8.32921,-1.1162 14.9221,-1.00561 5.12019,0.0859 8.67769,2.90714 14.34263,3.04126 2.97801,0.0706 6.02327,-2.58543 9.10411,-2.55365 28.27212,0.29182 61.471624,0.99194 71.245694,0.96617 23.93481,-0.0631 22.75978,-4.40053 46.6946,-1.78548 13.78723,-0.0364 31.61961,1.60332 45.40598,1.75746 12.12512,0.13557 25.04681,-0.65172 39.193,-0.90654 3.90247,-0.0703 7.03304,-1.46889 11.03222,-1.49659 3.19072,-0.0221 5.30916,1.05841 8.55422,1.07262 7.86445,0.0345 14.25829,-1.78124 22.34979,-1.70389 13.02032,0.12441 19.01636,2.23287 32.01534,2.57627 8.54837,0.22582 18.85426,-1.11688 28.67263,-1.57169 9.36818,-0.43395 18.29252,0.0375 24.82278,-0.49642"
       id="path2390-9-04-1"
       inkscape:connector-curvature="0"
       sodipodi:nodetypes="ccssssccsssssssc" />
    <path
       style="fill:none;stroke:#ebe6d5;stroke-width:0.67167622;stroke-linecap:butt;stroke-linejoin:miter;stroke-miterlimit:4;stroke-dasharray:none;stroke-opacity:0.14347827"
       d="m -31.959124,162.88053 c 36.0384896,-2.06311 7.14563,0.18592 53.36289,0.46308 8.38804,-0.0222 20.79905,-1.03191 30.25234,0.42485 2.46437,0.37975 13.49384,-0.38909 18.41011,-0.61324 13.84038,-0.63098 27.30532,0.0817 36.542604,0.0573 17.21236,-0.0455 6.89119,0.81836 38.32711,0.0739 12.20333,-0.28899 28.25008,0.10838 50.2923,-0.33725 5.34198,-0.0143 18.79324,0.17961 28.79193,0.42687 7.57943,0.18742 13.8886,1.67196 19.81625,1.55027 6.4004,-0.13141 5.3563,-0.98225 9.68168,-1.61049 13.35789,-1.94019 8.29982,0.94617 26.96319,0.24638 19.67198,-0.73759 61.99764,-1.19152 76.85754,0.006 22.02474,1.77554 23.41258,1.41105 44.28109,-0.29777"
       id="path2390-9-6-8-4"
       inkscape:connector-curvature="0"
       sodipodi:nodetypes="ccsscscsssssc" />
    <path
       style="fill:none;stroke:#845f4c;stroke-width:0.38251182px;stroke-linecap:butt;stroke-linejoin:miter;stroke-opacity:0.34782613"
       d="m -33.049934,165.4811 c 30.4300696,0.0157 -2.49675,1.18164 43.79903,1.45882 5.468,-0.0145 11.14772,0.39575 22.16886,0.64727 5.25826,0.11997 -0.17527,-0.17126 6.41762,-0.0607 5.12019,0.0859 12.45745,1.39524 18.12239,1.52936 2.97801,0.0706 10.74798,-2.01849 13.82882,-1.98669 13.19528,0.1362 26.14101,1.87324 38.600414,2.07202 14.236,0.22711 27.43301,-1.09211 32.64528,-1.10585 23.93481,-0.0631 22.79735,-2.74183 46.73217,-0.12678 13.78723,-0.0364 31.58204,-0.0554 45.36841,0.0988 12.12511,0.13557 25.04678,-0.65172 39.193,-0.90654 3.90247,-0.0703 7.03304,-1.46889 11.03222,-1.49659 3.19072,-0.0221 5.30916,1.05841 8.55422,1.07262 7.86445,0.0345 14.25829,-1.78124 22.34979,-1.70389 13.02032,0.12441 19.01636,2.23287 32.01534,2.57627 8.54837,0.22582 18.85426,-1.11688 28.67263,-1.57169 9.36818,-0.43395 18.2925,0.0375 24.82278,-0.49642"
       id="path2390-9-04-6-6"
       inkscape:connector-curvature="0"
       sodipodi:nodetypes="ccsssssccsssssssc" />
    <path
       style="fill:none;stroke:#84684c;stroke-width:0.38251182px;stroke-linecap:butt;stroke-linejoin:miter;stroke-opacity:0.95652173"
       d="m -32.823694,171.22834 c 30.4300796,0.0157 -2.49675,1.18164 43.79903,1.45882 5.468,-0.0145 11.14773,0.39575 22.16885,0.64727 5.25828,0.11997 -0.17526,-0.17126 6.41764,-0.0607 5.12019,0.0859 12.45745,1.39524 18.12238,1.52936 2.97801,0.0706 10.74799,-2.01849 13.82883,-1.98669 13.19528,0.1362 26.14101,1.87324 38.600414,2.07202 14.236,0.22711 27.43301,-1.09211 32.64528,-1.10585 23.93481,-0.0631 22.79735,-2.74183 46.73217,-0.12678 13.78723,-0.0364 31.58204,-0.0554 45.36841,0.0988 12.12511,0.13557 25.04678,-0.65172 39.19299,-0.90654 3.90247,-0.0703 7.03305,-1.46889 11.03223,-1.49659 3.19071,-0.0221 5.30915,1.05841 8.55421,1.07262 7.86445,0.0345 14.2583,-1.78124 22.3498,-1.70389 13.02031,0.12441 19.01635,2.23287 32.01533,2.57627 8.54837,0.22582 18.85426,-1.11688 28.67263,-1.57169 9.36816,-0.43395 18.2925,0.0375 24.82279,-0.49642"
       id="path2390-9-04-6-1-3"
       inkscape:connector-curvature="0"
       sodipodi:nodetypes="ccsssssccsssssssc" />
    <path
       style="fill:none;stroke:#0b0b0b;stroke-width:0.37100002;stroke-linecap:butt;stroke-linejoin:miter;stroke-miterlimit:4;stroke-dasharray:none;stroke-opacity:0.26086958"
       d="m -32.346964,178.88063 c 20.86938,0.7673 25.0758896,-3.28903 56.53072,-1.59873 14.68203,-0.0389 65.72758,-0.44447 109.327924,-0.8628 27.1417,-0.26041 55.04335,3.62019 61.34824,-0.10115 9.93296,-1.25092 34.4416,-0.24448 52.81448,0.6358 8.67841,0.4158 15.25376,1.39074 19.63232,1.00238 45.50296,-4.03586 70.21412,-0.0252 94.30589,0.40948 10.42249,0.18807 21.58013,0.18504 33.46069,-1.39695 2.48658,-0.3311 4.10125,-0.93801 6.75119,-1.28002"
       id="path2390-9-0-0-1"
       inkscape:connector-curvature="0"
       sodipodi:nodetypes="ccscssssc" />
    <path
       style="fill:none;stroke:#0b0b0b;stroke-width:0.38226402px;stroke-linecap:butt;stroke-linejoin:miter;stroke-opacity:0.37391304"
       d="m -33.110554,193.03681 c 36.0526197,-2.0632 65.61399,4.40227 111.84936,4.67944 20.91472,-0.0553 40.660294,-1.25833 61.575044,-1.31354 23.90359,-0.0631 47.80719,-5.48273 71.71076,-2.86766 13.76924,-0.0364 29.24547,4.54684 42.86659,2.56912 48.32504,-7.0166 97.42954,0.8884 145.75457,-3.06736"
       id="path2390-9-01"
       inkscape:connector-curvature="0"
       sodipodi:nodetypes="ccccsc" />
    <path
       style="fill:none;stroke:#ebe6d5;stroke-width:0.67164981;stroke-linecap:butt;stroke-linejoin:miter;stroke-miterlimit:4;stroke-dasharray:none;stroke-opacity:0.14347827"
       d="m -32.633834,200.6891 c 24.2272297,-1.38727 17.68755,2.57433 25.5480797,2.95154 3.83035,0.18382 11.89526,-3.33677 27.0353203,-3.24596 8.38673,-0.0222 20.79578,2.75573 30.2476,4.21261 9.40062,1.44897 26.17773,-0.90172 38.69429,-0.93479 19.087134,-0.0504 3.08051,-11.0015 44.052184,-1.31604 3.2806,0.77552 9.16074,2.30037 15.48972,0.78574 14.88752,-3.56284 36.64131,-0.20328 47.57453,-0.42436 13.76169,-0.0364 51.7276,1.7224 65.34129,-0.25541 27.43332,-3.98554 31.79268,-1.09153 60.74608,1.24311 22.0213,1.77568 58.65736,0.21836 79.52256,-1.4906"
       id="path2390-9-6-3"
       inkscape:connector-curvature="0"
       sodipodi:nodetypes="cscscsscssc" />
    <path
       style="fill:none;stroke:#0b0b0b;stroke-width:0.67068267;stroke-linecap:butt;stroke-linejoin:miter;stroke-miterlimit:4;stroke-dasharray:none;stroke-opacity:0.26086958"
       d="m -32.553634,210.25457 c 44.4929,0.7673 -6.29612,-1.58814 78.45335,-0.84278 23.82174,-0.0631 124.931874,-4.33507 148.753624,-1.7199 13.7221,-0.0364 59.34966,4.95912 73.01375,3.71705 69.29469,-6.29887 89.37381,0.34853 133.95073,-5.40469"
       id="path2390-9-0-2"
       inkscape:connector-curvature="0"
       sodipodi:nodetypes="cccsc" />
    <path
       style="fill:none;stroke:#e9bd54;stroke-width:0.67256856;stroke-linecap:butt;stroke-linejoin:miter;stroke-miterlimit:4;stroke-dasharray:none;stroke-opacity:0.2739131"
       d="m -33.336794,187.28957 c 36.1334897,-2.06316 61.85526,0.5762 108.19435,0.85338 20.96164,-0.0553 21.61248,1.80248 42.574164,1.74726 23.95721,-0.0631 54.5545,-4.71744 78.51178,-2.1024 13.80019,-0.0364 45.71602,4.54676 59.3677,2.56906 48.43344,-7.01647 97.64811,0.88839 146.08154,-3.0673"
       id="path2390-9-3-6"
       inkscape:connector-curvature="0"
       sodipodi:nodetypes="ccccsc" />
    <path
       style="fill:none;stroke:#62511d;stroke-width:0.38251182px;stroke-linecap:butt;stroke-linejoin:miter;stroke-opacity:0.34782613"
       d="m -33.299224,190.0066 c 36.0997097,-2.06318 9.40951,0.61468 55.70529,0.89186 5.46798,-0.0145 -0.75853,0.96271 10.26259,1.21423 5.25828,0.11997 8.32921,-1.1162 14.92209,-1.00561 5.1202,0.0859 8.6777,2.90714 14.34264,3.04126 2.978,0.0706 6.02327,-2.58543 9.10411,-2.55365 28.27212,0.29182 61.471704,0.99194 71.245774,0.96617 23.93481,-0.0631 22.75978,-4.40053 46.6946,-1.78548 13.78723,-0.0364 31.61961,1.60332 45.40598,1.75746 12.12512,0.13557 25.04681,-0.65172 39.193,-0.90654 3.90247,-0.0703 7.03304,-1.46889 11.03222,-1.49659 3.19072,-0.0221 5.30916,1.05841 8.55422,1.07262 7.86445,0.0345 14.25826,-1.78124 22.34972,-1.70389 13.02031,0.12441 19.01635,2.23287 32.01533,2.57627 8.54837,0.22582 18.85426,-1.11688 28.67263,-1.57169 9.36818,-0.43395 18.29252,0.0375 24.82278,-0.49642"
       id="path2390-9-04-3"
       inkscape:connector-curvature="0"
       sodipodi:nodetypes="ccssssccsssssssc" />
    <path
       style="fill:none;stroke:#ebe6d5;stroke-width:0.67167622;stroke-linecap:butt;stroke-linejoin:miter;stroke-miterlimit:4;stroke-dasharray:none;stroke-opacity:0.14347827"
       d="m -32.245984,184.689 c 36.0384797,-2.06311 7.14563,0.18592 53.36289,0.46308 8.38804,-0.0222 20.79904,-1.03191 30.25233,0.42485 2.46437,0.37975 13.49385,-0.38909 18.41012,-0.61324 13.84038,-0.63098 27.30532,0.0817 36.542624,0.0573 17.21242,-0.0455 6.89123,0.81836 38.32717,0.0739 12.20333,-0.28899 28.25008,0.10838 50.2923,-0.33725 5.34198,-0.0143 18.79325,0.17961 28.79193,0.42687 7.57943,0.18742 13.8886,1.67196 19.81625,1.55027 6.4004,-0.13141 5.3563,-0.98225 9.68168,-1.61049 13.35789,-1.94019 8.29982,0.94617 26.96319,0.24638 19.67198,-0.73759 61.99756,-1.19152 76.85746,0.006 22.02474,1.77554 23.41258,1.41105 44.28109,-0.29777"
       id="path2390-9-6-8-2"
       inkscape:connector-curvature="0"
       sodipodi:nodetypes="ccsscscsssssc" />
    <path
       style="fill:none;stroke:#845f4c;stroke-width:0.38251182px;stroke-linecap:butt;stroke-linejoin:miter;stroke-opacity:0.34782613"
       d="m -33.336794,187.28957 c 30.4300697,0.0157 -2.49675,1.18164 43.79903,1.45882 5.46799,-0.0145 11.14772,0.39575 22.16885,0.64727 5.25827,0.11997 -0.17526,-0.17126 6.41763,-0.0607 5.12019,0.0859 12.45745,1.39524 18.12239,1.52936 2.97801,0.0706 10.74798,-2.01849 13.82882,-1.98669 13.19528,0.1362 26.14101,1.87324 38.600454,2.07202 14.23604,0.22711 27.43305,-1.09211 32.64532,-1.10585 23.93481,-0.0631 22.79735,-2.74183 46.73217,-0.12678 13.78723,-0.0364 31.58204,-0.0554 45.36841,0.0988 12.12511,0.13557 25.04678,-0.65172 39.193,-0.90654 3.90247,-0.0703 7.03304,-1.46889 11.03222,-1.49659 3.19072,-0.0221 5.30916,1.05841 8.55422,1.07262 7.86445,0.0345 14.25826,-1.78124 22.34972,-1.70389 13.02031,0.12441 19.01635,2.23287 32.01533,2.57627 8.54837,0.22582 18.85426,-1.11688 28.67263,-1.57169 9.36818,-0.43395 18.2925,0.0375 24.82278,-0.49642"
       id="path2390-9-04-6-5"
       inkscape:connector-curvature="0"
       sodipodi:nodetypes="ccsssssccsssssssc" />
    <path
       style="fill:none;stroke:#84684c;stroke-width:0.38251182px;stroke-linecap:butt;stroke-linejoin:miter;stroke-opacity:0.95652173"
       d="m -33.110554,193.03681 c 30.4300697,0.0157 -2.49675,1.18164 43.79903,1.45882 5.46799,-0.0145 11.14772,0.39575 22.16885,0.64727 5.25827,0.11997 -0.17526,-0.17126 6.41763,-0.0607 5.12019,0.0859 12.45745,1.39524 18.12239,1.52936 2.97801,0.0706 10.74799,-2.01849 13.82883,-1.98669 13.19528,0.1362 26.14101,1.87324 38.600454,2.07202 14.23604,0.22711 27.43305,-1.09211 32.64532,-1.10585 23.93481,-0.0631 22.79735,-2.74183 46.73217,-0.12678 13.78723,-0.0364 31.58204,-0.0554 45.36841,0.0988 12.12511,0.13557 25.04678,-0.65172 39.19299,-0.90654 3.90247,-0.0703 7.03305,-1.46889 11.03223,-1.49659 3.19071,-0.0221 5.30915,1.05841 8.55421,1.07262 7.86445,0.0345 14.25827,-1.78124 22.34973,-1.70389 13.0203,0.12441 19.01634,2.23287 32.01532,2.57627 8.54837,0.22582 18.85426,-1.11688 28.67263,-1.57169 9.36816,-0.43395 18.2925,0.0375 24.82279,-0.49642"
       id="path2390-9-04-6-1-5"
       inkscape:connector-curvature="0"
       sodipodi:nodetypes="ccsssssccsssssssc" />
    <path
       style="fill:none;stroke:#0b0b0b;stroke-width:0.37100002;stroke-linecap:butt;stroke-linejoin:miter;stroke-miterlimit:4;stroke-dasharray:none;stroke-opacity:0.26086958"
       d="m -32.633834,200.6891 c 20.86939,0.7673 25.0758997,-3.28903 56.53072,-1.59873 14.68204,-0.0389 65.72759,-0.44447 109.328014,-0.8628 27.1417,-0.26041 55.04335,3.62019 61.34824,-0.10115 9.93297,-1.25092 34.4416,-0.24448 52.81448,0.6358 8.67841,0.4158 15.25376,1.39074 19.63232,1.00238 45.50291,-4.03586 70.21404,-0.0252 94.30581,0.40948 10.42249,0.18807 21.58013,0.18504 33.46069,-1.39695 2.48658,-0.3311 4.10125,-0.93801 6.75119,-1.28002"
       id="path2390-9-0-0-5"
       inkscape:connector-curvature="0"
       sodipodi:nodetypes="ccscssssc" />
    <path
       style="fill:none;stroke:#4f4634;stroke-width:0.38226402px;stroke-linecap:butt;stroke-linejoin:miter;stroke-opacity:0.34715721"
       d="m -32.743574,180.79381 c 36.0526204,-2.0632 65.61399,4.40227 111.84936,4.67944 20.914724,-0.0553 40.660294,-1.25833 61.575044,-1.31354 23.90359,-0.0631 47.80719,-5.48273 71.71076,-2.86766 13.76924,-0.0364 29.24547,4.54684 42.86659,2.56912 48.32504,-7.0166 97.42954,0.8884 145.75457,-3.06736"
       id="path2390-9-61"
       inkscape:connector-curvature="0"
       sodipodi:nodetypes="ccccsc" />
    <path
       style="fill:none;stroke:#4f4634;stroke-width:0.67164981;stroke-linecap:butt;stroke-linejoin:miter;stroke-miterlimit:4;stroke-dasharray:none;stroke-opacity:0.34715721"
       d="m -32.266844,188.4461 c 24.2272204,-1.38727 17.68754,2.57433 25.5480704,2.95154 3.83035,0.18382 11.89526,-3.33677 27.0353196,-3.24596 8.38673,-0.0222 20.79579,2.75573 30.2476,4.21261 9.40062,1.44897 26.17773,-0.90172 38.69429,-0.93479 19.087134,-0.0504 3.08051,-11.0015 44.052184,-1.31604 3.2806,0.77552 9.16074,2.30037 15.48972,0.78574 14.88752,-3.56284 36.64131,-0.20328 47.57453,-0.42436 13.76169,-0.0364 51.7276,1.7224 65.34129,-0.25541 27.43332,-3.98554 31.79268,-1.09153 60.74608,1.24311 22.0213,1.77568 58.65736,0.21836 79.52256,-1.4906"
       id="path2390-9-6-7"
       inkscape:connector-curvature="0"
       sodipodi:nodetypes="cscscsscssc" />
    <path
       style="fill:none;stroke:#4f4634;stroke-width:0.67068267;stroke-linecap:butt;stroke-linejoin:miter;stroke-miterlimit:4;stroke-dasharray:none;stroke-opacity:0.34715721"
       d="m -32.186644,198.01157 c 44.4929,0.7673 -6.29613,-1.58814 78.45334,-0.84278 23.82174,-0.0631 124.931874,-4.33507 148.753624,-1.7199 13.7221,-0.0364 59.34966,4.95912 73.01375,3.71705 69.29469,-6.29887 89.37381,0.34853 133.95073,-5.40469"
       id="path2390-9-0-3"
       inkscape:connector-curvature="0"
       sodipodi:nodetypes="cccsc" />
    <path
       style="fill:none;stroke:#4f4634;stroke-width:0.52657157;stroke-linecap:butt;stroke-linejoin:miter;stroke-miterlimit:4;stroke-dasharray:none;stroke-opacity:0.34715721"
       d="m -31.995104,202.6568 c 0,0 -6.07609,4.01981 40.0222904,4.29699 20.8527496,-0.0553 53.3623896,-2.40623 74.2151596,-2.46145 23.832774,-0.0631 11.9177,-2.8046 90.537924,-4.39822 13.72844,-0.0364 59.85532,7.99057 73.4361,6.01276 27.36704,-3.98554 60.37476,-7.04459 89.25819,-4.70995 21.96804,1.77568 44.73244,-1.17498 65.54724,-2.88395"
       id="path2390-9-6-6-2"
       inkscape:connector-curvature="0"
       sodipodi:nodetypes="ccccssc" />
    <path
       style="fill:none;stroke:#4f4634;stroke-width:0.52610481;stroke-linecap:butt;stroke-linejoin:miter;stroke-miterlimit:4;stroke-dasharray:none;stroke-opacity:0.34715721"
       d="m -32.393734,212.22226 c 44.43459,0.7673 -6.28788,-1.58814 78.35054,-0.84277 43.18427,-4.27193 105.762294,-6.24817 129.552824,-3.633 13.70411,-0.0364 88.35738,4.05696 101.62081,0.65611 29.41003,-7.54099 106.63994,7.61965 124.26934,-4.97593"
       id="path2390-9-0-7-7"
       inkscape:connector-curvature="0"
       sodipodi:nodetypes="cccsc" />
    <path
       style="fill:none;stroke:#4f4634;stroke-width:0.67256856;stroke-linecap:butt;stroke-linejoin:miter;stroke-miterlimit:4;stroke-dasharray:none;stroke-opacity:0.34715721"
       d="m -32.969814,175.04657 c 36.1334904,-2.06316 61.85526,0.5762 108.19435,0.85338 20.96164,-0.0553 21.61248,1.80248 42.574164,1.74726 23.95721,-0.0631 54.5545,-4.71744 78.51178,-2.1024 13.80019,-0.0364 45.71602,4.54676 59.3677,2.56906 48.43344,-7.01647 97.64811,0.88839 146.08154,-3.0673"
       id="path2390-9-3-1"
       inkscape:connector-curvature="0"
       sodipodi:nodetypes="ccccsc" />
    <path
       style="fill:none;stroke:#4f4634;stroke-width:0.38251182px;stroke-linecap:butt;stroke-linejoin:miter;stroke-opacity:0.34715721"
       d="m -32.932234,177.7636 c 36.0997104,-2.06318 9.4095,0.61468 55.70528,0.89186 5.46799,-0.0145 -0.75853,0.96271 10.26259,1.21423 5.25828,0.11997 8.32921,-1.1162 14.9221,-1.00561 5.12019,0.0859 8.67769,2.90714 14.34263,3.04126 2.97801,0.0706 6.02327,-2.58543 9.10411,-2.55365 28.27212,0.29182 61.471704,0.99194 71.245774,0.96617 23.93481,-0.0631 22.75978,-4.40053 46.6946,-1.78548 13.78723,-0.0364 31.61961,1.60332 45.40598,1.75746 12.12512,0.13557 25.04681,-0.65172 39.193,-0.90654 3.90247,-0.0703 7.03304,-1.46889 11.03222,-1.49659 3.19072,-0.0221 5.30916,1.05841 8.55422,1.07262 7.86445,0.0345 14.25826,-1.78124 22.34972,-1.70389 13.02031,0.12441 19.01635,2.23287 32.01533,2.57627 8.54837,0.22582 18.85426,-1.11688 28.67263,-1.57169 9.36818,-0.43395 18.29252,0.0375 24.82278,-0.49642"
       id="path2390-9-04-9"
       inkscape:connector-curvature="0"
       sodipodi:nodetypes="ccssssccsssssssc" />
    <path
       style="fill:none;stroke:#4f4634;stroke-width:0.67167622;stroke-linecap:butt;stroke-linejoin:miter;stroke-miterlimit:4;stroke-dasharray:none;stroke-opacity:0.34715721"
       d="m -31.879004,172.446 c 36.0384904,-2.06311 7.14563,0.18592 53.36289,0.46308 8.38804,-0.0222 20.79905,-1.03191 30.25234,0.42485 2.46437,0.37975 13.49384,-0.38909 18.41011,-0.61324 13.84038,-0.63098 27.30532,0.0817 36.542624,0.0573 17.21242,-0.0455 6.89123,0.81836 38.32717,0.0739 12.20333,-0.28899 28.25008,0.10838 50.2923,-0.33725 5.34198,-0.0143 18.79325,0.17961 28.79193,0.42687 7.57943,0.18742 13.8886,1.67196 19.81625,1.55027 6.4004,-0.13141 5.3563,-0.98225 9.68168,-1.61049 13.35789,-1.94019 8.29982,0.94617 26.96319,0.24638 19.67198,-0.73759 61.99756,-1.19152 76.85746,0.006 22.02474,1.77554 23.41258,1.41105 44.28109,-0.29777"
       id="path2390-9-6-8-3"
       inkscape:connector-curvature="0"
       sodipodi:nodetypes="ccsscscsssssc" />
    <path
       style="fill:none;stroke:#4f4634;stroke-width:0.38251182px;stroke-linecap:butt;stroke-linejoin:miter;stroke-opacity:0.34715721"
       d="m -32.969814,175.04657 c 30.4300704,0.0157 -2.49675,1.18164 43.79903,1.45882 5.468,-0.0145 11.14772,0.39575 22.16886,0.64727 5.25826,0.11997 -0.17527,-0.17126 6.41762,-0.0607 5.12019,0.0859 12.45745,1.39524 18.12239,1.52936 2.97801,0.0706 10.74798,-2.01849 13.82882,-1.98669 13.19528,0.1362 26.14101,1.87324 38.600454,2.07202 14.23604,0.22711 27.43305,-1.09211 32.64532,-1.10585 23.93481,-0.0631 22.79735,-2.74183 46.73217,-0.12678 13.78723,-0.0364 31.58204,-0.0554 45.36841,0.0988 12.12511,0.13557 25.04678,-0.65172 39.193,-0.90654 3.90247,-0.0703 7.03304,-1.46889 11.03222,-1.49659 3.19072,-0.0221 5.30916,1.05841 8.55422,1.07262 7.86445,0.0345 14.25826,-1.78124 22.34972,-1.70389 13.02031,0.12441 19.01635,2.23287 32.01533,2.57627 8.54837,0.22582 18.85426,-1.11688 28.67263,-1.57169 9.36818,-0.43395 18.2925,0.0375 24.82278,-0.49642"
       id="path2390-9-04-6-4"
       inkscape:connector-curvature="0"
       sodipodi:nodetypes="ccsssssccsssssssc" />
    <path
       style="fill:none;stroke:#4f4634;stroke-width:0.38251182px;stroke-linecap:butt;stroke-linejoin:miter;stroke-opacity:0.34715721"
       d="m -32.743574,180.79381 c 30.4300804,0.0157 -2.49675,1.18164 43.79903,1.45882 5.468,-0.0145 11.14773,0.39575 22.16885,0.64727 5.25828,0.11997 -0.17526,-0.17126 6.41764,-0.0607 5.12019,0.0859 12.45745,1.39524 18.12238,1.52936 2.97801,0.0706 10.74799,-2.01849 13.82883,-1.98669 13.19528,0.1362 26.14101,1.87324 38.600454,2.07202 14.23604,0.22711 27.43305,-1.09211 32.64532,-1.10585 23.93481,-0.0631 22.79735,-2.74183 46.73217,-0.12678 13.78723,-0.0364 31.58204,-0.0554 45.36841,0.0988 12.12511,0.13557 25.04678,-0.65172 39.19299,-0.90654 3.90247,-0.0703 7.03305,-1.46889 11.03223,-1.49659 3.19071,-0.0221 5.30915,1.05841 8.55421,1.07262 7.86445,0.0345 14.25827,-1.78124 22.34973,-1.70389 13.0203,0.12441 19.01634,2.23287 32.01532,2.57627 8.54837,0.22582 18.85426,-1.11688 28.67263,-1.57169 9.36816,-0.43395 18.2925,0.0375 24.82279,-0.49642"
       id="path2390-9-04-6-1-55"
       inkscape:connector-curvature="0"
       sodipodi:nodetypes="ccsssssccsssssssc" />
    <path
       style="fill:none;stroke:#4f4634;stroke-width:0.37100002;stroke-linecap:butt;stroke-linejoin:miter;stroke-miterlimit:4;stroke-dasharray:none;stroke-opacity:0.34715721"
       d="m -32.266844,188.4461 c 20.86938,0.7673 25.0758904,-3.28903 56.53072,-1.59873 14.68203,-0.0389 65.72758,-0.44447 109.328004,-0.8628 27.1417,-0.26041 55.04335,3.62019 61.34824,-0.10115 9.93297,-1.25092 34.4416,-0.24448 52.81448,0.6358 8.67841,0.4158 15.25376,1.39074 19.63232,1.00238 45.50291,-4.03586 70.21404,-0.0252 94.30581,0.40948 10.42249,0.18807 21.58013,0.18504 33.46069,-1.39695 2.48658,-0.3311 4.10125,-0.93801 6.75119,-1.28002"
       id="path2390-9-0-0-0"
       inkscape:connector-curvature="0"
       sodipodi:nodetypes="ccscssssc" />
    <path
       style="fill:none;stroke:#272219;stroke-width:0.38226402px;stroke-linecap:butt;stroke-linejoin:miter;stroke-opacity:0.31304351"
       d="m -33.480387,152.84313 c 36.05262,-2.0632 65.61399,4.40227 111.849359,4.67944 20.91472,-0.0553 40.660288,-1.25833 61.575038,-1.31354 23.90359,-0.0631 47.80719,-5.48273 71.71076,-2.86766 13.76924,-0.0364 29.24547,4.54684 42.86659,2.56912 48.32504,-7.0166 97.42954,0.8884 145.75457,-3.06736"
       id="path2390-9-7"
       inkscape:connector-curvature="0"
       sodipodi:nodetypes="ccccsc" />
    <path
       style="fill:none;stroke:#272219;stroke-width:0.67164981;stroke-linecap:butt;stroke-linejoin:miter;stroke-miterlimit:4;stroke-dasharray:none;stroke-opacity:0.31304351"
       d="m -33.003667,160.49542 c 24.22723,-1.38727 17.68755,2.57433 25.54808,2.95154 3.83035,0.18382 11.89526,-3.33677 27.03532,-3.24596 8.38673,-0.0222 20.79578,2.75573 30.247597,4.21261 9.400619,1.44897 26.177732,-0.90172 38.694292,-0.93479 19.087128,-0.0504 3.08051,-11.0015 44.052178,-1.31604 3.2806,0.77552 9.16074,2.30037 15.48972,0.78574 14.88752,-3.56284 36.64131,-0.20328 47.57453,-0.42436 13.76169,-0.0364 51.7276,1.7224 65.34129,-0.25541 27.43332,-3.98554 31.79268,-1.09153 60.74608,1.24311 22.0213,1.77568 58.65736,0.21836 79.52256,-1.4906"
       id="path2390-9-6-72"
       inkscape:connector-curvature="0"
       sodipodi:nodetypes="cscscsscssc" />
    <path
       style="fill:none;stroke:#272219;stroke-width:0.67068267;stroke-linecap:butt;stroke-linejoin:miter;stroke-miterlimit:4;stroke-dasharray:none;stroke-opacity:0.31304351"
       d="m -32.923467,170.06089 c 44.4929,0.7673 -6.29612,-1.58814 78.45335,-0.84278 23.821739,-0.0631 124.931867,-4.33507 148.753617,-1.7199 13.7221,-0.0364 59.34966,4.95912 73.01375,3.71705 69.29469,-6.29887 89.37381,0.34853 133.95073,-5.40469"
       id="path2390-9-0-5"
       inkscape:connector-curvature="0"
       sodipodi:nodetypes="cccsc" />
    <path
       style="fill:none;stroke:#272219;stroke-width:0.52657157;stroke-linecap:butt;stroke-linejoin:miter;stroke-miterlimit:4;stroke-dasharray:none;stroke-opacity:0.31304351"
       d="m -32.731917,174.70612 c 0,0 -6.07609,4.01981 40.02229,4.29699 20.85275,-0.0553 53.362384,-2.40623 74.215159,-2.46145 23.832768,-0.0631 11.9177,-2.8046 90.537918,-4.39822 13.72844,-0.0364 59.85532,7.99057 73.4361,6.01276 27.36704,-3.98554 60.37476,-7.04459 89.25819,-4.70995 21.96804,1.77568 44.73244,-1.17498 65.54724,-2.88395"
       id="path2390-9-6-6-5"
       inkscape:connector-curvature="0"
       sodipodi:nodetypes="ccccssc" />
    <path
       style="fill:none;stroke:#272219;stroke-width:0.52610481;stroke-linecap:butt;stroke-linejoin:miter;stroke-miterlimit:4;stroke-dasharray:none;stroke-opacity:0.31304351"
       d="m -33.130557,184.27158 c 44.4346,0.7673 -6.28787,-1.58814 78.350547,-0.84277 43.184272,-4.27193 105.76229,-6.24817 129.55282,-3.633 13.70411,-0.0364 88.35738,4.05696 101.62081,0.65611 29.41003,-7.54099 106.63994,7.61965 124.26934,-4.97593"
       id="path2390-9-0-7-6"
       inkscape:connector-curvature="0"
       sodipodi:nodetypes="cccsc" />
    <path
       style="fill:none;stroke:#272219;stroke-width:0.67256856;stroke-linecap:butt;stroke-linejoin:miter;stroke-miterlimit:4;stroke-dasharray:none;stroke-opacity:0.31304351"
       d="m -33.706627,147.09589 c 36.13349,-2.06316 61.85526,0.5762 108.194349,0.85338 20.96164,-0.0553 21.61248,1.80248 42.574158,1.74726 23.95721,-0.0631 54.5545,-4.71744 78.51178,-2.1024 13.80019,-0.0364 45.71602,4.54676 59.3677,2.56906 48.43344,-7.01647 97.64811,0.88839 146.08154,-3.0673"
       id="path2390-9-3-7"
       inkscape:connector-curvature="0"
       sodipodi:nodetypes="ccccsc" />
    <path
       style="fill:none;stroke:#272219;stroke-width:0.38167971px;stroke-linecap:butt;stroke-linejoin:miter;stroke-opacity:0.31304351"
       d="m -33.401187,192.7445 c 35.94116,-2.06327 22.28616,-2.4847 68.37863,-2.20752 3.68254,-0.01 14.512025,0.44458 14.512025,0.44458 23.024134,-1.52741 19.603824,2.49609 36.771464,2.45063 36.730388,0.01 63.491448,-3.30105 96.500018,-2.31543 24.39742,0.85424 41.04524,5.06011 48.8045,3.92997 28.87951,-4.20634 65.42,-7.25913 94.52319,-6.51044 19.44558,0.50025 55.08022,2.05407 74.37636,0.46958"
       id="path2390-9-8-7"
       inkscape:connector-curvature="0"
       sodipodi:nodetypes="ccsccssc" />
    <path
       style="fill:none;stroke:#272219;stroke-width:0.66950983;stroke-linecap:butt;stroke-linejoin:miter;stroke-miterlimit:4;stroke-dasharray:none;stroke-opacity:0.31304351"
       d="m -32.347077,204.3491 c 44.33741,0.7673 -6.27412,-1.58814 78.179188,-0.84278 23.738501,-0.0631 124.495079,-4.33507 148.233569,-1.7199 13.67414,-0.0364 59.14224,4.95912 72.75862,3.71705 69.05255,-6.29887 87.55489,0.72651 131.97605,-5.02671"
       id="path2390-9-0-78-2"
       inkscape:connector-curvature="0"
       sodipodi:nodetypes="cccsc" />
    <path
       style="fill:none;stroke:#272219;stroke-width:0.38251182px;stroke-linecap:butt;stroke-linejoin:miter;stroke-opacity:0.31304351"
       d="m -33.669057,149.81292 c 36.09971,-2.06318 9.4095,0.61468 55.70528,0.89186 5.46799,-0.0145 -0.75852,0.96271 10.2626,1.21423 5.25828,0.11997 8.32921,-1.1162 14.922091,-1.00561 5.120196,0.0859 8.677696,2.90714 14.342637,3.04126 2.978004,0.0706 6.023271,-2.58543 9.104111,-2.55365 28.27212,0.29182 61.471698,0.99194 71.245768,0.96617 23.93481,-0.0631 22.75978,-4.40053 46.6946,-1.78548 13.78723,-0.0364 31.61961,1.60332 45.40598,1.75746 12.12512,0.13557 25.04681,-0.65172 39.193,-0.90654 3.90247,-0.0703 7.03304,-1.46889 11.03222,-1.49659 3.19072,-0.0221 5.30916,1.05841 8.55422,1.07262 7.86445,0.0345 14.25826,-1.78124 22.34972,-1.70389 13.02031,0.12441 19.01635,2.23287 32.01533,2.57627 8.54837,0.22582 18.85426,-1.11688 28.67263,-1.57169 9.36818,-0.43395 18.29252,0.0375 24.82278,-0.49642"
       id="path2390-9-04-65"
       inkscape:connector-curvature="0"
       sodipodi:nodetypes="ccssssccsssssssc" />
    <path
       style="fill:none;stroke:#272219;stroke-width:0.67167622;stroke-linecap:butt;stroke-linejoin:miter;stroke-miterlimit:4;stroke-dasharray:none;stroke-opacity:0.31304351"
       d="m -32.615827,144.49532 c 36.03849,-2.06311 7.14564,0.18592 53.3629,0.46308 8.38804,-0.0222 20.79904,-1.03191 30.252332,0.42485 2.464369,0.37975 13.493843,-0.38909 18.410117,-0.61324 13.84038,-0.63098 27.30532,0.0817 36.542618,0.0573 17.21242,-0.0455 6.89123,0.81836 38.32717,0.0739 12.20333,-0.28899 28.25008,0.10838 50.2923,-0.33725 5.34198,-0.0143 18.79325,0.17961 28.79193,0.42687 7.57943,0.18742 13.8886,1.67196 19.81625,1.55027 6.4004,-0.13141 5.3563,-0.98225 9.68168,-1.61049 13.35789,-1.94019 8.29982,0.94617 26.96319,0.24638 19.67198,-0.73759 61.99756,-1.19152 76.85746,0.006 22.02474,1.77554 23.41258,1.41105 44.28109,-0.29777"
       id="path2390-9-6-8-25"
       inkscape:connector-curvature="0"
       sodipodi:nodetypes="ccsscscsssssc" />
    <path
       style="fill:none;stroke:#272219;stroke-width:0.38251182px;stroke-linecap:butt;stroke-linejoin:miter;stroke-opacity:0.31304351"
       d="m -33.706627,147.09589 c 30.43007,0.0157 -2.49675,1.18164 43.79903,1.45882 5.46799,-0.0145 11.14772,0.39575 22.16885,0.64727 5.25827,0.11997 -0.17526,-0.17126 6.41763,-0.0607 5.120186,0.0859 12.457449,1.39524 18.122387,1.52936 2.978008,0.0706 10.747982,-2.01849 13.828822,-1.98669 13.19528,0.1362 26.14101,1.87324 38.600448,2.07202 14.23604,0.22711 27.43305,-1.09211 32.64532,-1.10585 23.93481,-0.0631 22.79735,-2.74183 46.73217,-0.12678 13.78723,-0.0364 31.58204,-0.0554 45.36841,0.0988 12.12511,0.13557 25.04678,-0.65172 39.193,-0.90654 3.90247,-0.0703 7.03304,-1.46889 11.03222,-1.49659 3.19072,-0.0221 5.30916,1.05841 8.55422,1.07262 7.86445,0.0345 14.25826,-1.78124 22.34972,-1.70389 13.02031,0.12441 19.01635,2.23287 32.01533,2.57627 8.54837,0.22582 18.85426,-1.11688 28.67263,-1.57169 9.36818,-0.43395 18.2925,0.0375 24.82278,-0.49642"
       id="path2390-9-04-6-0"
       inkscape:connector-curvature="0"
       sodipodi:nodetypes="ccsssssccsssssssc" />
    <path
       style="fill:none;stroke:#272219;stroke-width:0.38251182px;stroke-linecap:butt;stroke-linejoin:miter;stroke-opacity:0.31304351"
       d="m -33.480387,152.84313 c 30.43007,0.0157 -2.49675,1.18164 43.79903,1.45882 5.46799,-0.0145 11.14772,0.39575 22.16885,0.64727 5.25827,0.11997 -0.17526,-0.17126 6.41763,-0.0607 5.120191,0.0859 12.457452,1.39524 18.12239,1.52936 2.97801,0.0706 10.747989,-2.01849 13.828829,-1.98669 13.19528,0.1362 26.14101,1.87324 38.600448,2.07202 14.23604,0.22711 27.43305,-1.09211 32.64532,-1.10585 23.93481,-0.0631 22.79735,-2.74183 46.73217,-0.12678 13.78723,-0.0364 31.58204,-0.0554 45.36841,0.0988 12.12511,0.13557 25.04678,-0.65172 39.19299,-0.90654 3.90247,-0.0703 7.03305,-1.46889 11.03223,-1.49659 3.19071,-0.0221 5.30915,1.05841 8.55421,1.07262 7.86445,0.0345 14.25827,-1.78124 22.34973,-1.70389 13.0203,0.12441 19.01634,2.23287 32.01532,2.57627 8.54837,0.22582 18.85426,-1.11688 28.67263,-1.57169 9.36816,-0.43395 18.2925,0.0375 24.82279,-0.49642"
       id="path2390-9-04-6-1-9"
       inkscape:connector-curvature="0"
       sodipodi:nodetypes="ccsssssccsssssssc" />
    <path
       style="fill:none;stroke:#272219;stroke-width:0.37100002;stroke-linecap:butt;stroke-linejoin:miter;stroke-miterlimit:4;stroke-dasharray:none;stroke-opacity:0.31304351"
       d="m -33.003667,160.49542 c 20.86939,0.7673 25.0759,-3.28903 56.53072,-1.59873 14.68203,-0.0389 65.727589,-0.44447 109.328007,-0.8628 27.1417,-0.26041 55.04335,3.62019 61.34824,-0.10115 9.93297,-1.25092 34.4416,-0.24448 52.81448,0.6358 8.67841,0.4158 15.25376,1.39074 19.63232,1.00238 45.50291,-4.03586 70.21404,-0.0252 94.30581,0.40948 10.42249,0.18807 21.58013,0.18504 33.46069,-1.39695 2.48658,-0.3311 4.10125,-0.93801 6.75119,-1.28002"
       id="path2390-9-0-0-12"
       inkscape:connector-curvature="0"
       sodipodi:nodetypes="ccscssssc" />
  </g>
  <g
     inkscape:groupmode="layer"
     id="layer9"
     inkscape:label="collarback"
     transform="translate(0,30)">
    <path
       style="opacity:1;fill:#4f6b6d;fill-opacity:1;stroke:none;stroke-width:0.09587406;stroke-miterlimit:4;stroke-dasharray:none;stroke-opacity:1"
       d="m 43.514588,80.507419 c 0.494329,-0.281097 1.024382,-0.53206 1.563472,-0.691817 0.190148,-0.05471 0.345723,-0.128368 0.345723,-0.163689 0,-0.03531 0.08298,-0.07657 0.184383,-0.09163 0.175129,-0.02602 0.18424,-0.0019 0.181455,0.478496 -0.0021,0.337411 -1.290302,2.504711 -1.371983,2.565853 -0.784028,0.133221 -0.156455,-1.966195 -0.90305,-2.097217 z"
       id="path2779"
       inkscape:connector-curvature="0"
       sodipodi:nodetypes="ccscccc" />
    <path
       style="opacity:1;fill:#4f6b6d;fill-opacity:1;stroke:none;stroke-width:0.09050998;stroke-miterlimit:4;stroke-dasharray:none;stroke-opacity:1"
       d="M 56.365201,80.520646 C 56.154957,80.414351 56.111009,80.29095 56.10541,79.791183 l -0.723673,-0.411581 c 0.664345,0.01198 1.122012,0.415138 1.677357,0.661669 0.432507,0.186107 0.410251,0.288645 -0.09435,0.434702 -0.364587,0.105518 -0.974773,0.507305 -1.109836,0.439054 z"
       id="path2777"
       inkscape:connector-curvature="0"
       sodipodi:nodetypes="ccccccc" />
  </g>
  <g
     inkscape:groupmode="layer"
     id="layer12"
     inkscape:label="pants"
     transform="translate(0,30)">
    <path
       style="fill:#6f4b3e;fill-opacity:1;stroke:none;stroke-width:0.21241532px;stroke-linecap:butt;stroke-linejoin:miter;stroke-opacity:1"
       d="m 57.867913,172.24633 c 2.532336,1.05812 9.205142,1.43774 10.782237,1.55564 4.488911,-0.14972 -3.967737,-7.21929 -5.073857,-9.41236 -1.657125,-0.0886 -3.375753,0.0511 -5.33288,0.0785 0.230469,2.13562 -0.83519,4.42817 -0.3755,7.77821 z"
       id="path874-9"
       inkscape:connector-curvature="0"
       inkscape:transform-center-x="0.4291439"
       inkscape:transform-center-y="-0.26823102"
       sodipodi:nodetypes="ccccc" />
    <path
       style="fill:#6f4b3e;fill-opacity:1;stroke:none;stroke-width:0.21241532px;stroke-linecap:butt;stroke-linejoin:miter;stroke-opacity:1"
       d="m 47.854589,173.01801 c 2.532337,1.05813 9.205143,1.43772 10.782238,1.55564 4.488909,-0.14973 -3.967737,-7.21928 -5.073858,-9.41236 -1.657125,-0.0886 -3.375752,0.0511 -5.332879,0.0785 0.23047,2.13562 -0.83519,4.42817 -0.375501,7.77821 z"
       id="path874"
       inkscape:connector-curvature="0"
       inkscape:transform-center-x="0.4291439"
       inkscape:transform-center-y="-0.26823083"
       sodipodi:nodetypes="ccccc" />
    <path
       style="fill:#3a342c;fill-opacity:1;stroke:none;stroke-width:0.26741326px;stroke-linecap:butt;stroke-linejoin:miter;stroke-opacity:1"
       d="m 48.23009,165.23981 c 1.660146,0.77979 3.147124,1.29836 5.332879,-0.0786 1.52506,-21.07103 1.291068,-30.07504 2.424874,-36.99365 0,0 -0.565559,-0.44275 2.219839,-0.44275 -0.113098,13.64993 -0.05364,34.77474 0.214578,36.83474 3.523619,0.8612 4.171419,0.77898 5.578863,-0.17002 1.627769,-8.06701 7.393087,-32.55101 7.073629,-48.69289 -8.712271,1.01632 -22.798299,-7.0612 -29.818248,1.08323 -3.34902,6.98485 3.457136,42.62222 6.973586,48.45983 z"
       id="path2887"
       inkscape:connector-curvature="0"
       sodipodi:nodetypes="cccccccccc" />
    <path
       style="opacity:1;fill:#3c2821;fill-opacity:0.32608696;stroke:none;stroke-width:0.38178995;stroke-miterlimit:4;stroke-dasharray:none;stroke-opacity:1"
       d="m 253.54223,769.82718 c -12.96529,-0.96096 -27.80352,-2.91583 -28.1189,-3.70455 -0.29743,-0.74383 -3.30382,-5.02269 -5.07736,-7.22637 l -2.09803,-2.60689 c 0.71483,-5.88475 1.84249,-11.34254 1.93946,-18.01973 0.0196,-3.00598 0.18896,-3.65499 0.79536,-3.04858 0.3035,0.30349 7.16179,1.91215 8.1522,1.91215 0.32883,0 0.52761,0.22371 0.61709,0.69448 0.65536,5.58534 -3.496,13.5646 -1.54569,17.59813 11.95089,7.52504 17.45106,11.22109 31.4156,14.42835 -0.40622,0.40621 -0.224,0.40702 -6.07973,-0.027 z"
       id="path2935"
       inkscape:connector-curvature="0"
       transform="matrix(0.26458333,0,0,0.26458333,0,-30)"
       sodipodi:nodetypes="csccccsccccc" />
    <path
       style="opacity:1;fill:#3c2821;fill-opacity:0.32608696;stroke:none;stroke-width:0.10101525;stroke-miterlimit:4;stroke-dasharray:none;stroke-opacity:1"
       d="m 57.028232,174.56651 c -3.430399,-0.25425 -7.356348,-0.77148 -7.439792,-0.98016 -0.0787,-0.19681 -1.264602,0.0147 -1.733851,-0.56835 l -0.164638,-2.03337 c 0.189132,-1.55701 0.487492,-3.00105 0.513149,-4.76772 0.0052,-0.79533 0.05,-0.96705 0.210439,-0.8066 0.0803,0.0803 1.89489,0.50592 2.156936,0.50592 0.087,0 0.139597,0.0592 0.163272,0.18375 0.173397,1.47779 -1.539194,4.25042 -1.023175,5.31763 3.162007,1.991 5.231471,2.30745 8.926255,3.15604 -0.107479,0.10748 -0.05927,0.10769 -1.608595,-0.007 z"
       id="path2935-9"
       inkscape:connector-curvature="0"
       sodipodi:nodetypes="csccccsccccc" />
  </g>
  <g
     inkscape:groupmode="layer"
     id="layer7"
     inkscape:label="neck"
     transform="translate(0,30)">
    <path
       style="opacity:1;fill:#c49658;fill-opacity:1;stroke:none;stroke-width:0.14750132;stroke-miterlimit:4;stroke-dasharray:none;stroke-opacity:1"
       d="m 44.583038,81.034114 c 1.082661,-1.53273 0.902061,-6.571006 -1.271303,-8.554119 3.679449,-3.22994 8.826938,2.883901 12.22187,1.44884 0.152206,-0.06405 -0.04658,1.031888 0.140786,3.123377 0.213097,1.253315 0.277916,2.171787 0.69081,3.468434 l -3.539179,3.367011 c -2.493545,1.600437 -6.491849,-1.019234 -8.242984,-2.853543 z"
       id="path2762"
       inkscape:connector-curvature="0"
       sodipodi:nodetypes="ccccccc" />
    <path
       style="opacity:1;fill:#4f6b6d;fill-opacity:1;stroke:none;stroke-width:0.09587406;stroke-miterlimit:4;stroke-dasharray:none;stroke-opacity:1"
       d="m 50.675215,84.790231 c -0.07318,-0.758028 0.204367,-1.410861 0.185343,-2.083879 -0.03083,-0.01724 -0.02634,-0.10981 0.01006,-0.205651 0.808018,-0.230893 1.669436,1.693419 2.075806,2.52516 -0.266459,0.749298 -1.792382,-0.823264 -2.271188,-0.235628 z"
       id="path2779-5"
       inkscape:connector-curvature="0"
       sodipodi:nodetypes="cccccc" />
    <path
       style="opacity:1;fill:#4f6b6d;fill-opacity:1;stroke:none;stroke-width:0.06677258;stroke-miterlimit:4;stroke-dasharray:none;stroke-opacity:1"
       d="m 53.401547,84.205024 c 1.295122,-0.364364 1.05427,-1.340689 -0.09479,-2.28953 -0.259177,0.679458 -0.480726,1.972163 -0.360348,3.110367 0.02414,0.631076 -0.588968,-2.321597 0.455119,-0.820835 z"
       id="path2779-5-6"
       inkscape:connector-curvature="0"
       sodipodi:nodetypes="ccccc" />
  </g>
  <g
     inkscape:groupmode="layer"
     id="layer11"
     inkscape:label="sweater"
     transform="translate(0,30)">
    <path
       style="opacity:1;fill:#594c35;fill-opacity:1;stroke:#604a25;stroke-width:0.06380091;stroke-miterlimit:4;stroke-dasharray:none;stroke-opacity:1"
       d="m 38.016267,100.08841 c 1.497535,3.64323 3.183002,6.55695 4.791117,8.99719 l 0.83347,1.26475 1.739218,-0.0561 c 2.784447,-0.0898 5.88358,-0.71539 9.489591,-1.91559 3.805023,-1.26647 7.621866,-3.0541 9.01092,-4.22027 l 0.390693,-0.32802 -0.256108,-0.76705 c -0.140849,-0.42189 -0.559954,-1.97295 -0.931332,-3.446807 -0.800023,-3.174952 -0.884121,-3.407489 -1.232425,-3.407489 -0.139203,0 -2.244833,0.665154 -4.679167,1.478121 -2.434335,0.812964 -4.932487,1.620341 -5.551444,1.794178 -1.519101,0.42668 -2.805944,0.710237 -2.855959,0.629317 -0.02258,-0.0365 -0.393832,-1.236691 -0.825003,-2.666995 -1.056015,-3.503077 -1.817567,-5.468343 -2.440735,-6.298587 -0.235543,-0.313823 -0.322504,-0.102363 -0.09216,0.224131 0.619362,0.877866 1.243067,2.504752 2.332636,6.084586 0.485234,1.594251 0.896983,2.913845 0.915004,2.932415 0.05866,0.0604 2.607782,-0.590287 4.135405,-1.055704 0.819934,-0.24982 3.133392,-1.008304 5.14102,-1.685521 2.007629,-0.677227 3.73818,-1.231314 3.845667,-1.231314 0.107494,0 0.244531,0.10774 0.304536,0.23943 0.06002,0.1317 0.438137,1.535731 0.840307,3.120082 0.402163,1.584367 0.817845,3.132487 0.923739,3.440297 l 0.192534,0.5596 -0.376998,0.29701 c -1.410375,1.11118 -4.70476,2.68868 -8.072878,3.86565 -3.964514,1.38538 -7.870392,2.18702 -10.655834,2.18702 H 43.72727 l -0.823823,-1.25326 c -3.49603,-5.31846 -6.428545,-12.152189 -7.562143,-17.62228 -0.223287,-1.07747 -0.277381,-1.621344 -0.28493,-2.864579 -0.01241,-2.042141 0.07242,-2.322708 0.996292,-3.295294 1.508085,-1.587615 3.743363,-2.525904 6.974344,-2.927572 0.936937,-0.116478 1.066134,-0.111041 1.534604,0.06456 2.906719,-0.0106 2.129781,2.667822 6.158336,1.707947 l 0.603899,-0.0015 c 0.332142,-8.03e-4 0.702993,-0.02798 0.824122,-0.06048 0.20894,-0.05605 3.562749,-1.180102 3.631114,-0.359412 0.03967,0.475766 -0.04022,-0.06508 0,0 0.07158,0.115821 -1.875496,1.425844 0,0 0.430176,-0.327039 0.835202,-0.607736 0.900053,-0.623774 0.06699,-0.01656 0.241553,0.346619 0.404022,0.840451 0.789114,2.398559 7.878432,2.14744 15.371175,18.069763 3.203948,6.80854 -5.96708,-4.371545 -5.891288,-4.197215 v 0 c 0.365911,7.782105 0.68381,2.705645 1.865343,5.491765 0.66313,1.56371 2.333214,11.92434 2.646361,13.02968 -8.514008,0.52542 -25.916044,1.2771 -28.34773,1.76215 -2.482078,-0.49423 -1.897735,-1.45885 -2.148447,-1.86124 -0.416889,-3.98251 -1.322051,-9.56145 -2.562308,-15.93405 z"
       id="path2884"
       inkscape:connector-curvature="0"
       sodipodi:nodetypes="ccccccccssscccccccssscccccsscccccccccccccccsccsccccc" />
    <path
       style="opacity:1;fill:#643f21;fill-opacity:0.16956524;stroke:none;stroke-width:0.10101525;stroke-miterlimit:4;stroke-dasharray:none;stroke-opacity:1"
       d="m 45.233848,78.080708 c 0,0 0.06214,-0.793518 -0.192098,-2.080273 1.519468,-0.981375 9.063828,0.229328 10.576237,0.243654 0.03789,1.240283 0.107164,0.887366 0.139601,1.531856 -2.705752,-0.06074 -8.671682,0.49935 -10.52374,0.304763 z"
       id="path2867"
       inkscape:connector-curvature="0"
       sodipodi:nodetypes="ccccc" />
  </g>
  <g
     inkscape:groupmode="layer"
     id="layer16"
     inkscape:label="sweater shadow">
    <path
       style="opacity:1;fill:#0f0e0e;fill-opacity:0.11304348;stroke:none;stroke-width:0.10101525;stroke-miterlimit:4;stroke-dasharray:none;stroke-opacity:1"
       d="m 43.062095,139.10407 c -3.758819,-5.75523 -6.669141,-12.57662 -7.789432,-18.25735 -0.223914,-1.13541 -0.270531,-4.11017 -0.06951,-4.43544 0.04057,-0.0656 0.161261,-0.0301 0.513395,0.15116 2.637449,6.59861 4.652708,15.10888 9.38275,20.32482 5.266962,0.24345 12.428756,-1.779 18.211815,-5.29863 0.380359,1.20314 0.244667,0.63231 0.65718,1.91393 0.05846,0.16192 0.09845,0.30007 0.08888,0.307 -0.0096,0.007 -0.242927,0.1788 -0.518549,0.38195 -1.809401,1.33359 -6.058101,3.23563 -9.68666,4.33649 -3.580652,1.08632 -6.462462,1.59641 -9.012582,1.59527 l -1.112112,-5.3e-4 -0.665173,-1.01847 z"
       id="path2888"
       inkscape:connector-curvature="0"
       sodipodi:nodetypes="cscccccccccccc" />
    <path
       style="opacity:1;fill:#0f0e0e;fill-opacity:0.11304351;stroke:none;stroke-width:0.26996624;stroke-miterlimit:4;stroke-dasharray:none;stroke-opacity:1"
       d="m 202.48608,449.5633 c -1.08463,-6.1576 -1.90298,-13.17185 -3.41944,-19.21331 -0.0569,-0.54561 -0.008,-0.61012 0.62799,-0.83119 1.0871,-0.3778 3.53283,-1.01575 3.60757,-0.94101 0.0373,0.0373 0.22745,1.06775 0.42266,2.29001 0.37882,2.37184 0.61063,4.77884 0.90198,9.36584 l 0.18152,2.85784 -0.51311,1.78502 c -0.67097,2.3342 -1.79614,5.24905 -1.80917,4.6868 z"
       id="path2896"
       inkscape:connector-curvature="0"
       transform="scale(0.26458333)"
       sodipodi:nodetypes="cccscsccc" />
    <path
       style="opacity:1;fill:#504530;fill-opacity:1;stroke:none;stroke-width:0.53993249;stroke-miterlimit:4;stroke-dasharray:none;stroke-opacity:1"
       d="m 159.33489,558.53458 c -2.77918,-0.91163 -3.98695,-1.68353 -4.71861,-3.01571 -0.75196,-1.36914 -0.90583,-2.25499 -2.43262,-14.00492 -1.24555,-9.58555 -3.08303,-21.0583 -5.40541,-33.75 -2.13749,-11.68125 -2.45931,-13.66285 -2.17506,-13.39286 0.1034,0.0982 1.09509,2.1875 2.20376,4.64286 3.66038,8.10665 9.90869,19.20545 15.63251,27.76786 l 2.44712,3.66071 3.29559,-0.004 c 12.61455,-0.0141 28.26856,-3.23441 44.1962,-9.09194 4.44072,-1.63312 5.53964,-1.83958 3.68394,-0.69213 -12.61979,5.78623 -29.32507,22.96088 -40.12439,25.32221 -4.91655,-0.30983 -11.22212,-5.64884 -12.58769,-2.01408 0,0 2.14769,9.50125 4.96455,13.65971 0.45172,0.5167 0.26342,0.59504 -1.91807,0.79797 -1.33043,0.12375 -3.14218,0.30547 -4.0261,0.40381 -0.88393,0.0983 -2.25,-0.0321 -3.03572,-0.28981 z"
       id="path2917"
       inkscape:connector-curvature="0"
       transform="scale(0.26458333)"
       sodipodi:nodetypes="csssccsccccccccccc" />
    <path
       style="opacity:1;fill:#504530;fill-opacity:1;stroke:none;stroke-width:0.19089498;stroke-miterlimit:4;stroke-dasharray:none;stroke-opacity:1"
       d="m 238.35863,509.2979 c 0,-0.044 0.65344,-0.54731 1.45209,-1.11842 0.79865,-0.5711 1.80308,-1.34594 2.23205,-1.72186 l 0.77996,-0.6835 -0.43272,-1.28492 c -0.23799,-0.7067 -0.43272,-1.33414 -0.43272,-1.3943 0,-0.0602 0.38355,-0.28353 0.85232,-0.49639 0.89815,-0.40782 3.72958,-1.5045 3.75987,-1.45628 0.01,0.0155 4.66767,9.9151 10.35092,21.99905 l 10.33319,21.97082 0.54758,2.77792 c 0.82874,4.20429 0.85357,4.3437 0.78585,4.41141 -0.0783,0.0783 -3.55129,0.31907 -4.63997,0.32172 -11.08052,-14.25641 -19.79643,-30.1073 -25.58842,-43.32525 z"
       id="path2921"
       inkscape:connector-curvature="0"
       transform="scale(0.26458333)"
       sodipodi:nodetypes="cccccsccscsccc" />
    <path
       style="opacity:1;fill:#504530;fill-opacity:1;stroke:none;stroke-width:0.38178995;stroke-miterlimit:4;stroke-dasharray:none;stroke-opacity:1"
       d="m 235.70486,479.82566 c -0.47294,-1.68919 -1.16044,-2.67546 -1.86499,-2.67546 -0.33168,0 -7.3335,2.09143 -8.96225,2.58519 -8.86276,-11.77037 -13.75896,-35.5962 -15.52318,-42.61525 -0.25389,-1.03845 2.11053,-2.24436 3.61314,-5.11204 0.85489,-1.63153 1.6514,-3.0661 1.77003,-3.18794 0.12087,-0.12414 0.34204,0.26445 0.50307,0.88388 1.477,5.68124 8.49767,22.683 16.32831,39.54179 2.85157,6.13924 5.11096,11.28155 5.02085,11.42735 -0.31402,0.50809 -0.57556,0.25762 -0.88498,-0.84752 z"
       id="path2925"
       inkscape:connector-curvature="0"
       transform="scale(0.26458333)"
       sodipodi:nodetypes="csccsccccc" />
  </g>
  <g
     inkscape:groupmode="layer"
     id="layer8"
     inkscape:label="collar"
     transform="translate(0,30)">
    <path
       style="opacity:1;fill:#6d9092;fill-opacity:1;stroke:none;stroke-width:0.09050998;stroke-miterlimit:4;stroke-dasharray:none;stroke-opacity:1"
       d="m 43.353391,82.302795 c 0.04578,-0.737491 0.15659,-1.787813 0.161197,-1.795376 3.540853,0.744311 6.041099,0.186781 7.840451,2.088059 -0.348406,0.7206 0.372759,5.031739 0.482646,5.428653 -2.201579,-1.972319 -5.667821,-4.709844 -8.484289,-5.721336 z"
       id="path2773"
       inkscape:connector-curvature="0"
       sodipodi:nodetypes="cccccc" />
    <path
       style="opacity:1;fill:#6d9092;fill-opacity:1;stroke:none;stroke-width:0.08249164;stroke-miterlimit:4;stroke-dasharray:none;stroke-opacity:1"
       d="m 53.306748,81.915494 c 1.350843,-1.213928 1.456425,-0.808804 4.149982,-1.670196 -0.13366,0.723807 -0.172493,1.823672 0.06954,2.221242 -1.263301,1.293514 -2.105918,4.282916 -3.293562,5.265745 -0.111693,-1.304049 -0.103909,-4.404766 -0.925954,-5.816791 z"
       id="path2775"
       inkscape:connector-curvature="0"
       sodipodi:nodetypes="ccccc" />
  </g>
  <g
     inkscape:groupmode="layer"
     id="layer4"
     inkscape:label="face"
     transform="translate(0,30)">
    <path
       style="opacity:1;fill:#c9a370;fill-opacity:1;stroke:none;stroke-width:0.25600082;stroke-miterlimit:4;stroke-dasharray:none;stroke-opacity:1"
       d="m 34.350886,73.432998 c -0.615137,-0.31056 0.05892,-0.0064 0,0 -4.527426,-3.146516 -4.595937,-6.254109 -5.764618,-8.400201 -4.030264,0.365531 -5.080206,-1.944593 -5.753792,-4.925924 -1.346809,-3.508959 0.550136,-8.729472 4.468872,-2.903704 -2.257276,-6.281284 -1.06761,-9.952211 0.549324,-15.642131 3.471497,-7.425317 11.85855,-9.607184 17.961128,-10.258958 6.609039,-0.698843 14.475354,1.939583 16.918038,4.478879 3.096808,4.460494 3.013516,9.591311 3.191274,13.866467 0.351744,6.724225 1.658859,16.242389 2.72772,19.862743 -4.906092,3.814186 -8.374573,5.361825 -13.331526,6.817442 -9.076788,0.03419 -17.045363,-0.529684 -20.96642,-2.894613 z"
       id="path2644"
       inkscape:connector-curvature="0"
       sodipodi:nodetypes="cccccccccccc" />
  </g>
  <g
     inkscape:groupmode="layer"
     id="layer15"
     inkscape:label="face shadow">
    <path
       style="opacity:1;fill:#b18a5c;fill-opacity:1;stroke:none;stroke-width:0.19433112;stroke-miterlimit:4;stroke-dasharray:none;stroke-opacity:1"
       d="m 28.19012,88.513423 c -0.482296,-1.48094 -0.574789,-1.664358 -0.87586,-1.736895 -0.29168,-0.07028 -0.313301,-0.108077 -0.161955,-0.283138 0.146869,-0.169884 0.142041,-0.221789 -0.03035,-0.326173 -0.181869,-0.11013 -0.184364,-0.196896 -0.02212,-0.768831 0.127371,-0.448983 0.163525,-1.065248 0.11911,-2.030062 l -0.06378,-1.385367 0.327041,0.692682 c 1.111651,2.354535 1.937442,4.700893 3.701753,10.517956 1.365242,4.501306 2.239585,7.112665 3.027745,9.042845 0.30591,0.74916 2.180276,1.86296 0.962964,1.66141 C 31.14761,100.79993 29.602851,92.816744 28.19012,88.513423 Z"
       id="path2797"
       inkscape:connector-curvature="0"
       sodipodi:nodetypes="ccccccccsccc" />
    <path
       style="opacity:1;fill:#b18a5c;fill-opacity:1;stroke:none;stroke-width:0.12733158;stroke-miterlimit:4;stroke-dasharray:none;stroke-opacity:1"
       d="m 33.476925,80.48874 c -1.693361,0.631606 1.210631,-1.498969 -0.143197,-2.454254 3.303353,-0.811757 4.775905,-2.049823 7.897901,-0.602869 0,0 0.792301,-7.143313 0.870014,-6.839451 1.732212,6.773004 -0.369642,7.797049 -0.52252,7.863321 0,0 -5.872134,-0.15901 -8.102194,2.033253 z"
       id="path2797-8"
       inkscape:connector-curvature="0"
       sodipodi:nodetypes="cccsccc" />
    <path
       style="opacity:1;fill:#9e774d;fill-opacity:0.57391304;stroke:none;stroke-width:0.12733158;stroke-miterlimit:4;stroke-dasharray:none;stroke-opacity:1"
       d="M 44.110687,78.883981 43.833855,77.36517 c 3.303353,-0.811757 7.189957,-1.679743 10.311953,-0.232789 0,0 1.785393,-9.451654 1.814005,-8.992957 0.355252,10.29511 -1.675356,10.609566 -1.830185,10.676684 0,0 -4.91573,-0.654408 -10.018937,0.06787 z"
       id="path2797-8-0"
       inkscape:connector-curvature="0"
       sodipodi:nodetypes="ccccccc" />
    <path
       style="opacity:1;fill:#b18a5c;fill-opacity:1;stroke:none;stroke-width:0.12733158;stroke-miterlimit:4;stroke-dasharray:none;stroke-opacity:1"
       d="m 58.43901,77.934419 c 0,0 -0.310971,-0.978057 -0.255419,-1.634479 3.303353,-0.81176 4.775905,-2.04982 7.897901,-0.60287 0,0 1.425529,17.925636 2.56734,23.813099 -0.561542,0.516981 1.395912,-1.252411 0,0 -1.954268,-2.66665 -4.225904,-13.769659 -3.675057,-21.371812 0,0 -3.265271,-0.506327 -6.534765,-0.203938 z"
       id="path2797-8-7"
       inkscape:connector-curvature="0"
       sodipodi:nodetypes="ccccccc" />
  </g>
  <g
     inkscape:groupmode="layer"
     id="layer5"
     inkscape:label="hair"
     transform="translate(0,30)">
    <path
       style="opacity:1;fill:#3a342c;fill-opacity:1;stroke:none;stroke-width:0.12800041;stroke-miterlimit:4;stroke-dasharray:none;stroke-opacity:1"
       d="m 27.464664,53.526211 c 0.310368,1.905825 0.181935,2.647514 -0.163316,3.676958 -3.449269,-4.450996 -5.459618,-2.632872 -4.468872,2.903704 1.048298,5.727436 5.753792,4.925924 5.753792,4.925924 0,0 2.588402,6.259578 5.764618,8.4002 -3.850877,0.262108 -8.709502,0.589176 -11.833428,2.196285 0,0 -1.098657,-2.960792 -1.419998,-5.585167 -1.166323,1.636871 -0.687284,3.956309 -0.972928,5.387647 C 17.060423,70.948541 16.05639,65.44122 18.900737,61.629667 18.335565,61.197287 14.755721,62.9422 12.121358,58.790553 18.300657,55.872602 17.341105,44.5634 20.017205,39.202388 23.067643,28.600887 32.775845,25.409129 45.124766,24.283766 c 10.437253,0.733138 21.178199,7.153996 23.320679,15.640829 2.391239,12.904554 2.217982,22.758285 1.494307,32.827691 -3.493979,-6.13342 -4.693089,-28.484587 -4.266721,-25.936846 -2.149338,-1.370231 -7.544992,0.140922 -7.544992,0.140922 0,0 -0.248107,-2.530657 -2.445407,-6.740648 -0.192026,-0.159368 -0.172267,6.00149 -1.536824,6.916667 -7.825762,-0.04809 -7.321002,0.350364 -10.311953,0.232789 -0.06075,-0.843934 -1.454568,-5.630554 -1.720115,-6.103799 0.212837,3.215099 -0.117999,4.653807 -0.882111,6.170246 -1.782954,-0.189944 -3.802735,0.480284 -5.524644,0.86486 1.534643,12.898364 1.174968,21.659793 3.369227,30.375641 -7.742336,-6.588269 -7.87005,-17.779591 -11.611548,-25.145907 z"
       id="path2671"
       inkscape:connector-curvature="0"
       sodipodi:nodetypes="cccccccccccccccccccccccc" />
    <path
       style="opacity:1;fill:#282828;fill-opacity:1;stroke:none;stroke-width:0.49268842;stroke-miterlimit:4;stroke-dasharray:none;stroke-opacity:1"
       d=""
       id="path2738"
       inkscape:connector-curvature="0"
       transform="scale(0.26458333)" />
    <path
       style="opacity:1;fill:#3a342c;fill-opacity:1;stroke:none;stroke-width:0.09050998;stroke-miterlimit:4;stroke-dasharray:none;stroke-opacity:1"
       d="m 37.96372,52.198038 c 2.950251,-1.346036 7.464532,-2.373253 9.931213,-2.297774 0.624282,0.376891 0.23813,1.417672 0.23813,1.417672 -1.385231,-0.09624 -2.739108,0.05065 -4.920369,0.231188 -1.336072,0.06558 -5.65474,0.904912 -5.248974,0.648916 z"
       id="path2740"
       inkscape:connector-curvature="0"
       sodipodi:nodetypes="cccccc" />
    <path
       style="opacity:1;fill:#3a342c;fill-opacity:1;stroke:none;stroke-width:0.07367831;stroke-miterlimit:4;stroke-dasharray:none;stroke-opacity:1"
       d="m 64.7079,51.06307 c -2.094288,-1.117039 -5.182433,-1.800439 -6.798057,-1.541151 -0.368551,0.421128 0.0031,1.426423 0.0031,1.426423 0.901223,-0.199125 1.809217,-0.154314 3.265776,-0.137893 0.887101,-0.03467 3.825265,0.476672 3.529235,0.252623 z"
       id="path2740-4"
       inkscape:connector-curvature="0"
       sodipodi:nodetypes="cccccc" />
  </g>
  <g
     inkscape:groupmode="layer"
     id="layer6"
     inkscape:label="eyes"
     transform="translate(0,30)">
    <path
       style="fill:#ffffff;fill-opacity:0.63913042;stroke:none;stroke-width:0.21241532px;stroke-linecap:butt;stroke-linejoin:miter;stroke-opacity:1"
       d="m 38.020715,55.632863 c -0.0068,2.342167 2.896515,6.975107 3.898761,6.928354 2.572053,-0.119985 4.539288,0.288817 4.660205,-0.690998 0.321274,-2.603326 1.083311,-6.973267 1.08056,-7.455997 -6.355585,0.19375 -10.700071,-1.162949 -3.755993,-0.114282"
       id="path2889"
       inkscape:connector-curvature="0"
       sodipodi:nodetypes="csscc" />
    <path
       style="opacity:1;fill:#3f2908;fill-opacity:1;stroke:none;stroke-width:0.09050998;stroke-miterlimit:4;stroke-dasharray:none;stroke-opacity:1"
       d="m 41.304656,54.607972 c 2.817599,-0.447617 3.723648,-0.807888 5.433219,-0.192917 0.135084,0.92031 0.254546,3.331406 0.230072,4.385575 -0.04897,2.109025 -0.140334,3.624491 -2.369132,3.586959 -2.082575,-0.258508 -2.53107,-1.513687 -2.930704,-3.714025 -0.143249,-0.788716 -0.366936,-3.213584 -0.363455,-4.065592 z"
       id="path2707"
       inkscape:connector-curvature="0"
       sodipodi:nodetypes="ccscsc" />
    <path
       style="opacity:1;fill:#282828;fill-opacity:1;stroke:none;stroke-width:0.09050998;stroke-miterlimit:4;stroke-dasharray:none;stroke-opacity:1"
       d="m 37.958576,53.943477 c 1.180497,-0.0858 3.471588,-0.343825 4.843141,-0.382065 1.17021,-0.04569 3.290381,0.104661 5.708187,1.277641 0,0 0.189108,0.09866 0,0 -4.657663,-0.473629 -6.696014,0.315028 -10.489189,0.79381 -0.08951,-0.590174 -0.06214,-1.077182 -0.06214,-1.689386 z"
       id="path2713"
       inkscape:connector-curvature="0"
       sodipodi:nodetypes="ccccccc" />
    <path
       style="fill:#ffffff;fill-opacity:0.63913042;stroke:none;stroke-width:0.19539826px;stroke-linecap:butt;stroke-linejoin:miter;stroke-opacity:1"
       d="m 64.407232,52.617084 c 0.961602,2.04803 -0.703598,7.735109 -0.703598,7.735109 -0.124691,0.873007 -2.412609,1.145652 -3.400306,1.502394 -1.683047,-1.437173 -1.825852,-3.978248 -2.395329,-7.785036"
       id="path2889-0"
       inkscape:connector-curvature="0"
       sodipodi:nodetypes="cscc" />
    <path
       style="opacity:1;fill:#3f2908;fill-opacity:1;stroke:none;stroke-width:0.09050998;stroke-miterlimit:4;stroke-dasharray:none;stroke-opacity:1"
       d="m 63.231318,52.713249 c -2.817599,-0.447618 -2.444266,0.143448 -4.153836,0.75842 -0.135084,0.920308 -0.02491,2.183239 -4.39e-4,3.237411 0.04897,2.109023 0.313231,4.760688 2.213982,4.788765 1.557698,-0.258507 2.095734,-2.092205 2.167322,-4.489372 0.02392,-0.801261 -0.223547,-3.443218 -0.227029,-4.295224 z"
       id="path2707-3"
       inkscape:connector-curvature="0"
       sodipodi:nodetypes="ccscsc" />
    <path
       style="opacity:1;fill:#282828;fill-opacity:1;stroke:none;stroke-width:0.09050998;stroke-miterlimit:4;stroke-dasharray:none;stroke-opacity:1"
       d="m 57.907999,54.069551 c 1.8133,-1.908616 4.232033,-2.323359 7.061968,-1.881178 l -0.09842,1.213776 c -2.580835,-0.258852 -4.448853,-0.01566 -6.90966,0.847272 -0.269523,0.103983 -0.272045,0.09557 -0.05389,-0.17987 z"
       id="path2715"
       inkscape:connector-curvature="0"
       sodipodi:nodetypes="cccccc" />
    <path
       style="opacity:1;fill:#282828;fill-opacity:1;stroke:none;stroke-width:0.09050998;stroke-miterlimit:4;stroke-dasharray:none;stroke-opacity:1"
       d="m 41.975737,62.859427 c -1.116567,-0.65167 -1.453345,-1.350681 -2.905577,-3.703804 0.705104,0.770681 1.457216,3.75745 7.418365,3.134361 -1.472479,0.439497 -2.971896,0.49841 -4.512788,0.569443 z"
       id="path2713-2"
       inkscape:connector-curvature="0"
       sodipodi:nodetypes="cccc" />
    <path
       style="opacity:1;fill:#282828;fill-opacity:1;stroke:none;stroke-width:0.07987674;stroke-miterlimit:4;stroke-dasharray:none;stroke-opacity:1"
       d="m 63.377838,61.498125 c 0.855942,-0.764095 0.666454,-1.142327 0.910297,-3.897363 -0.614999,2.190137 0.273542,3.675469 -5.04314,4.253825 1.365289,0.100871 2.77493,-0.130129 4.132843,-0.356462 z"
       id="path2713-2-8"
       inkscape:connector-curvature="0"
       sodipodi:nodetypes="cccc" />
    <ellipse
       style="opacity:1;fill:#ffffff;fill-opacity:0.53043476;stroke:none;stroke-width:0.09328418;stroke-miterlimit:4;stroke-dasharray:none;stroke-opacity:1"
       id="path2969"
       cx="42.611057"
       cy="59.116329"
       rx="0.74965131"
       ry="0.61067796" />
    <ellipse
       style="opacity:1;fill:#ffffff;fill-opacity:0.53043476;stroke:none;stroke-width:0.09328418;stroke-miterlimit:4;stroke-dasharray:none;stroke-opacity:1"
       id="path2969-5"
       cx="60.211075"
       cy="58.067875"
       rx="0.74965131"
       ry="0.61067796" />
    <path
       style="fill:#33261d;fill-opacity:1;stroke:none;stroke-width:0.21274982;stroke-linecap:butt;stroke-linejoin:miter;stroke-miterlimit:4;stroke-dasharray:none;stroke-opacity:1"
       d="m 52.512068,70.838439 c 0.241002,0.838068 1.124329,1.161848 2.036063,1.080175 1.115382,-0.09992 2.10504,-0.0731 2.178723,-1.30395"
       id="path3001"
       inkscape:connector-curvature="0"
       sodipodi:nodetypes="csc" />
  </g>
  <g
     inkscape:groupmode="layer"
     id="layer14"
     inkscape:label="glass lens"
     transform="translate(0,30)" />
  <g
     inkscape:groupmode="layer"
     id="layer10"
     inkscape:label="pencil base"
     transform="translate(0,30)">
    <path
       style="opacity:1;fill:#d5a7d3;fill-opacity:1;stroke:none;stroke-width:0.17756529;stroke-miterlimit:4;stroke-dasharray:none;stroke-opacity:1"
       d="m 59.88881,91.136252 c -2.352559,-5.988415 -4.170452,-8.430145 -2.686823,-12.636188 1.757165,-3.960484 15.465104,-10.990169 21.946761,-9.666125 3.401147,1.317753 6.98956,9.754966 6.879413,9.887451 -2.110354,9.82376 -22.078386,16.191998 -26.139351,12.414862 z"
       id="path2858"
       inkscape:connector-curvature="0"
       sodipodi:nodetypes="ccccc" />
    <path
       style="opacity:1;fill:#9b958a;fill-opacity:1;stroke:none;stroke-width:0.24467371;stroke-miterlimit:4;stroke-dasharray:none;stroke-opacity:1"
       d="M 62.261999,96.242134 59.88881,91.136252 C 72.011109,90.220536 79.778723,86.672776 86.028161,78.72139 l 2.37321,5.105937 C 82.156629,94.149773 71.417229,97.166158 62.261999,96.242134 Z"
       id="path2824-6"
       inkscape:connector-curvature="0"
       sodipodi:nodetypes="ccccc" />
    <path
       style="fill:#e7c9a8;fill-opacity:1;stroke:none;stroke-width:0.18020038px;stroke-linecap:butt;stroke-linejoin:miter;stroke-opacity:1"
       d="m 87.623271,150.17106 c 7.709982,9.05537 23.351899,20.37397 27.013059,18.21203 5.02865,-1.24661 2.58928,-17.28193 0.37896,-31.51049 -10.15571,5.46125 -17.099978,5.98931 -27.391964,13.29846 z"
       id="path2875"
       inkscape:connector-curvature="0"
       sodipodi:nodetypes="ccccc" />
    <path
       style="opacity:1;fill:#e4af41;fill-opacity:1;stroke:none;stroke-width:0.24467371;stroke-miterlimit:4;stroke-dasharray:none;stroke-opacity:1"
       d="M 87.623271,150.17106 62.261999,96.242134 c 12.122303,-0.915713 19.889908,-4.463418 26.139372,-12.414807 8.539745,17.637643 17.672429,35.263983 26.613849,53.045253 -6.24473,10.3225 -18.2367,14.22254 -27.391949,13.29848 z"
       id="path2824"
       inkscape:connector-curvature="0"
       sodipodi:nodetypes="ccccc" />
    <path
       style="opacity:1;fill:#9b958a;fill-opacity:1;stroke:none;stroke-width:0.15196416;stroke-miterlimit:4;stroke-dasharray:none;stroke-opacity:1"
       d="m 103.61586,164.09028 c 7.76485,0.18173 9.69154,-0.6334 13.9272,-6.08034 0.0927,4.62656 0.5421,11.22329 -2.10208,12.25065 -2.05316,1.15367 -10.11181,-4.9331 -11.82512,-6.17031 z"
       id="path1550"
       inkscape:connector-curvature="0"
       sodipodi:nodetypes="cccc" />
  </g>
  <g
     inkscape:groupmode="layer"
     id="layer13"
     inkscape:label="hands"
     transform="translate(0,30)">
    <path
       style="opacity:1;fill:#c9a370;fill-opacity:1;stroke:none;stroke-width:0.07598208;stroke-miterlimit:4;stroke-dasharray:none;stroke-opacity:1"
       d="m 62.48433,97.292608 c 1.349741,-1.139544 0.841139,-1.99262 1.958874,-2.411186 0.585492,0.552391 0.515537,2.446326 0.313233,3.07892 2.266966,-2.979206 1.902046,-5.00337 2.981028,-5.695862 1.515868,1.02632 -1.329997,5.976922 -1.329997,5.976922 0,0 0.536785,-2.274168 2.235858,-1.922911 l 1.796984,1.358244 c -0.975062,1.251024 -0.725646,1.873528 -1.798693,3.205495 -2.201136,1.4969 -3.403358,1.56442 -4.69751,2.22681 -0.999637,-3.733634 -1.136768,-4.557001 -1.459777,-5.816432 z"
       id="path1559"
       inkscape:connector-curvature="0"
       sodipodi:nodetypes="ccccccccccc" />
  </g>
</svg>
